<?xml version="1.0" encoding="UTF-8"?>
<svg id="female" xmlns="http://www.w3.org/2000/svg" version="1.1" viewBox="0 0 900 1140">
  <!-- Generator: Adobe Illustrator 29.8.2, SVG Export Plug-In . SVG Version: 2.1.1 Build 3)  -->
  <g id="Abductors">
    <path fill="#8c000a" d="M810.17,547.01c-3.77,10-8.66,19.67-9.73,30.46-.25,2.52.51,4.52,1.11,6.97.86,3.52,1.76,7.01,2.43,10.58,5.3,28.15-1.29,56.78-5.79,84.63-.41,2.09-1.29,5.18-1.19,7.42l.83-.34c.49-2.04.96-4.08,1.41-6.13,3.22-10.56,5.65-21.23,8.53-31.64,12.05-43.51,12.99-75.2,7.21-119.68-1.38,5.79-2.75,12.22-4.82,17.74Z"/>
    <path fill="#8c000a" d="M578.83,545.03c-1.9-5.41-2.63-10.74-4.17-16.05-1.42,14.17-3.46,30.14-3.64,44.27-.45,34.37,9.43,76.02,19.52,108.93.29,2.42,1.15,6.88,2.65,8.78-.51-2.9-.71-6-1.35-9.24-5.64-22.86-9.64-55.93-7.48-79.6.72-7.91,5.05-18.74,4.6-25.16-.69-9.99-6.85-22.54-10.14-31.93Z"/>
    <path fill="#8c000a" d="M109.08,537.15c-7.89,39.63-1.79,83.96,6.64,123.24,2.38,9.76,4.28,18.39,6.86,28.21.55,1.54,1.05,2.9,1.6,4.29h-1.45c-.26-.94-.56-1.93-.93-3.06-2.32-9.72-5.37-19.49-7.49-29.28-7.42-32.51-19.16-63.49-20.5-97.27-1.31-32.93,4.63-65.73,14.34-97.11,3.71-11.98,8.13-24.53,14.1-35.54,3.03,1.63,4.16,2.19,6.87,4.47,5.07,37.1-13.06,66.96-20.04,102.05Z"/>
    <path fill="#8c000a" d="M193.35,692.89h-1.97c-1.1-33.87-8.09-69.21-20.05-99.76-20.63-52.72-33.61-98.3-38.37-155.61,14.38,13.43,9.96,13.95,13.18,32.6,2.38,13.17,5.3,26.25,8.75,39.17,13.33,49.56,38.51,94.64,39.65,146.78.26,12.33-.93,24.51-1.19,36.82Z"/>
    <path fill="#8c000a" d="M271.43,534.94c-18.16,52.86-39.58,102.7-41.27,157.95h-1.43c-.54-13.11-1.17-26.53-.94-39.61,1.33-43.88,19.39-80.92,32.94-121.77,9.23-27.82,14.36-54.32,18.54-83.32,2.95-3.74,6.32-7.12,10.05-10.08-2.38,28.51-8.84,70.49-17.89,96.83Z"/>
    <path fill="#8c000a" d="M326.02,586.04c-3.95,23.28-11,48.27-17.47,71.11l-1.65,6.76c-.83,3.48-5.74,24.13-6.94,26.67l-.57,2.31h-1.6c.45-1,.83-2.02,1.12-3.04,2.47-6.49,4.98-18.23,6.57-25.1.71-2.52,1.3-5.97,1.84-8.6,7.25-40.62,13.41-73.66,6.25-115.16-6.4-37.08-25.63-67.23-20.43-105.87,2.65-2.3,3.68-2.82,6.68-4.46,3.97,5.5,9.62,21.63,11.88,28.56,13.02,39.92,21.44,84.94,14.32,126.82Z"/>
  </g>
</svg>