<?xml version="1.0" encoding="UTF-8"?>
<svg id="female" xmlns="http://www.w3.org/2000/svg" version="1.1" viewBox="0 0 900 1140">
  <!-- Generator: Adobe Illustrator 29.8.2, SVG Export Plug-In . SVG Version: 2.1.1 Build 3)  -->
  <g id="ABS">
    <path fill="#8c000a" d="M207.35,423.55c-1.13-2.29-4.05-3.73-6.43-4.26-6.37-1.41-17.72-4.06-23.94-3.83-3.42,6.03-3.57,21.12-1.22,27.77,8.42,23.85,13.17,49.08,22.1,72.63,1.36,3.59,6.46,5.39,9.78,6.3l1.49-.61c1.3-3.8.35-78.35.35-88.24,0-2.32-1.04-7.58-2.13-9.77Z"/>
    <path fill="#8c000a" d="M225.6,513.4c4.8-13.04,7.88-27,11.76-40.43,3.06-11.57,7.32-22.43,10.15-34.08,1.13-4.65.78-17.37-1.43-22.14-.79-1.71-3.95-1.23-5.61-1.08-20.89,3.79-28.36.77-27.97,25.11.43,26.91-.77,54.53.42,81.42,2.19-.55,4.55-1.08,6.69-1.73,2.56-1.77,4.89-4.1,5.98-7.06Z"/>
    <path fill="#8c000a" d="M204.33,293.94c-12.57,8.57-17.41,12.06-31.34,18.39-1.24,11.51-3.75,24.82,3.85,34.61,5.03-3.03,9.59-5.74,14.92-8.27,5.82-2.94,15.72-3.87,17.11-11.6,1.17-6.5.43-13.78.5-20.41.05-4.65.62-11.36-5.04-12.71Z"/>
    <path fill="#8c000a" d="M214.84,330.71c2.71,3.83,19.9,8.56,23.92,12.28,1.92,1.27,5.49,3.84,7.66,3.23,5.9-11.43,4.21-21.26,2.91-33.78-4.7-2.26-9-4.34-13.55-6.83-4.78-2.62-14.9-10.62-19.42-11.72-4.72,5.01-4.85,32.1-1.51,36.82Z"/>
    <path fill="#8c000a" d="M219.37,415.75c2.6,1.11,16.36-2.29,19.8-3.04,3.51-1.01,5.47-1.33,7.34-4.87,3.32-6.28,3.83-16.67,1.96-23.5-.39-1.42-2.12-4.44-3.03-4.53-5.1-.5-20.46-.7-24.82-.37-2.73,1.26-5.62,2.62-6.41,5.82-1.9,7.74-3.73,26.69,5.15,30.49Z"/>
    <path fill="#8c000a" d="M205.16,415.1c5.72-6.86,6.42-28.52-.31-34.08-3.91-3.24-22.16-1.32-28.3-1.62-5.84,8.43-4.6,21.97.19,30.65,4.69,2.5,23.78,7.48,28.42,5.06Z"/>
    <path fill="#8c000a" d="M215.21,374.46c2.52,3.76,25.56,2.42,29.95,1.2,6.37-5.95,4.57-19.19-1.4-24.9-6.79-6.49-18.06-12-27.27-13.28-1.93,1.34-3.33,2.66-3.52,5.25-.55,7.37-1.6,25.97,2.25,31.72Z"/>
    <path fill="#8c000a" d="M204.06,337.56c-9.91,2.97-23.58,8.2-28.73,17.82-3.03,5.67-3.86,19.05,4.39,21.02,5.63.29,22.04,1.18,26.5-.92,3.76-4.2,3.63-13.06,3.53-18.59-.08-5.11,1.9-19.42-5.69-19.33Z"/>
  </g>
</svg>