<?xml version="1.0" encoding="UTF-8"?>
<svg id="female" xmlns="http://www.w3.org/2000/svg" version="1.1" viewBox="0 0 900 1140">
  <!-- Generator: Adobe Illustrator 29.8.2, SVG Export Plug-In . SVG Version: 2.1.1 Build 3)  -->
  <g id="calvs">
    <path fill="#8c000a" d="M645.8,784.12c-2.58-3.55-5.43-20.92-9.04-23.82-11.89,14.43-9.7,38.93-11.17,56.97-1.32,16.23-2.04,33.72-1.33,49.98,1.61,17.25,7.21,29.11,22.66,37.21,12.43-31.39,15.29-53.21,10.8-86.59-2.2-16.35-1.53-19.42-11.92-33.74Z"/>
    <path fill="#8c000a" d="M762.03,880.7c1.62-4.78,2.65-9.75,3.06-14.78,1.74-23.26-2.42-49.83-2.93-73.28-.19-8.79-2.42-27.26-10.5-32.45-1.73,5.15-7.34,23.47-9.72,26.83-9.72,13.72-8.47,15.13-10.47,31.69-2.93,24.33-3.17,48.19,5.53,71.67,1.09,2.95,3.71,12.12,5.81,13.9,11.29-5.7,15.29-11.6,19.23-23.59Z"/>
    <path fill="#8c000a" d="M801.9,851.96c-1.08-19.84-6.64-38.89-10.94-58.18-.66-2.97-2.2-10.75-3.16-13.01-1.77-4.21-10.54-20.75-13.4-23.09-8.38,9.23-11.01,16.3-10.05,28.93,1.39,18.38,2.37,36.9,3.22,55.27.71,15.28-2.78,33.07,8.56,45.02,3.89,4.03,10.06,2.95,14.14-.19,5.15-5.73,6.71-11.49,9.08-18.63,1.96-5.92,2.91-9.81,2.56-16.13Z"/>
    <path fill="#8c000a" d="M624.9,776.36c.06-5.54-6.05-15.31-10.49-18.53-3.83,6.64-8.91,14.55-12.39,21.06-1.35,2.53-3.9,16.23-4.68,19.91-4.14,19.64-13.71,46.71-8.19,66.6,2.06,7.42,4.87,17.33,10.95,22.4,10.1,4.48,16.26-2.55,19.37-11.56,3.04-8.82,1.72-21.21,2.01-30.78.68-23.01,3.16-46.13,3.42-69.1Z"/>
    <path fill="#8c000a" d="M275.36,936.32c-3.61,16.43-6.91,32.92-9.92,49.47,2.9,1.04,5.29,1.85,8.08,3.21l4.56,2.29c-.06-25.58,3.6-51.18,9.43-75.39,9.91-41.19,17.41-79.08,5.82-120.8-1.87-6.73-2.88-19.62-5.09-25.62l-4.4,9.37c3,21.29,6.8,45.71,6.39,67.2-.58,29.91-8.27,61.21-14.86,90.26Z"/>
    <path fill="#8c000a" d="M122.51,843.16c.32,18.84,5.44,43.09,9.51,61.64,6.76,30.82,12.23,54.87,11.9,86.53l6.53-3.31c2.01-.75,4.22-1.64,6.27-2.2-3.53-15.13-5.8-30.82-9.27-45.84-7.76-33.61-16.01-65.87-15.84-100.65.1-21.68,4.14-39.72,6.68-60.5-1-2.21-3.36-7.86-4.94-9.31-3.76,24.06-11.25,49.74-10.84,73.64Z"/>
    <path fill="#8c000a" d="M186.14,789.53c-12.22,25.68-19.47,62.07-11.24,90.38,1.59,5.47,5.36,13.43,7.7,18.82l1.17,2.34.62-.06c9.23-33.06,10.44-58.84,4.18-92.57-.98-5.27-.71-14.39-2.42-18.91Z"/>
    <path fill="#8c000a" d="M249.39,871.63c2.79-23.57-.98-52.51-9.95-74.38-.81-1.98-2.87-7.04-4.24-8.21-.88,13.11-2.47,26.17-4.47,39.15-3.94,25.67.06,49.15,7.14,73.82.8-1.68,1.7-3.49,2.44-5.18,2-4.89,8.49-20.22,9.08-25.2Z"/>
    <path fill="#8c000a" d="M246.65,960.79c1.21-9.71,6.53-75.92,3.12-80.39-3.22,7.93-8.17,17.13-9.71,25.54-.82,4.5,4.68,42.34,5.77,50.44.24,1.68.38,2.74.82,4.41Z"/>
    <path fill="#8c000a" d="M175.54,962.21c1.75-18.51,4.14-36.97,7.17-55.31-1.87-4.37-9.33-24.74-11.6-26.87.36,7.94.7,20.66.43,28.63.82,19.8,1.55,33.99,3.99,53.55Z"/>
  </g>
</svg>