<?xml version="1.0" encoding="UTF-8"?>
<svg id="female" xmlns="http://www.w3.org/2000/svg" version="1.1" viewBox="0 0 900 1140">
  <!-- Generator: Adobe Illustrator 29.8.2, SVG Export Plug-In . SVG Version: 2.1.1 Build 3)  -->
  <g id="chest">
    <path fill="#8c000a" d="M170.52,192.37c-9.45,1.21-24.94,8.29-30.03,16.41-7.77,12.38-17.64,23.56-25.64,35.58,3.9-2.39,15.1-9.48,17.8-1.74,2,5.74-1.69,15.59-2.3,21.73-2.35,18.14,2.83,31.04,19.27,39.43,20.21,7.04,51.06-3.45,57.3-26.45,4.43-16.3.93-42.69.75-59.97-1.83-23.12-17.9-26.12-37.15-25Z"/>
    <path fill="#8c000a" d="M307.26,244.28c-6.48-11.49-17.33-22.08-24.03-33.74-5.08-8.86-19.01-15.75-28.5-17.95-2.62-.64-7.1-.4-9.92-.18-6.94.42-18.13.59-22.68,6.42-9.33,12.3-8.13,30.45-8.42,45.19-.36,18.38-2.4,38,13.61,50.88,13.52,10.88,35.12,16.11,50.56,6.11,8.13-6.18,12.82-12.57,14.3-23.1.55-3.93.57-7.91.06-11.83-.44-3.4-1.29-7.73-2.05-11.09-3.89-17.2,3.44-19.56,17.07-10.71Z"/>
  </g>
</svg>