<?xml version="1.0" encoding="UTF-8"?>
<svg id="Layer_1" data-name="Layer 1" xmlns="http://www.w3.org/2000/svg" viewBox="0 0 900 1140">
  <defs>
    <style>
      .cls-1 {
        fill: #ff9100;
      }
    </style>
  </defs>
  <g id="forearm_flexors" data-name="forearm  flexors">
    <path class="cls-1" d="M413.74,505.24c.7,7.47.38,14.83-1.08,22.61-5.94-3.51-7.76-9.3-8.63-15.14-2.93-19.76-8.57-37.81-16.71-56.07-9.17-20.59-13.32-42.11-12.31-64.88l15.64,14.22c6.7,6.09,12.2,12.69,13.96,21.79l3.67,19.03,5.45,58.45Z"/>
    <path class="cls-1" d="M44.39,517.7c-1.21,3.32-3.73,5.51-7.04,5.22l2.55-15.72,14.34-57.72c4.88-19.64,12.81-37.64,22.63-55.12,1.82-3.24,3.98-5.49,7.43-8.17,7.77,20.69.09,45.3-9.67,63.96-11.55,22.08-21.6,43.88-30.23,67.56Z"/>
    <path class="cls-1" d="M50.87,524.16c-7.36,4.64,11.19-37.97,16.13-48.97l18.94-42.16c5.24-11.67,13.44-20.18,22.23-29.12l10.51-10.69c-2.06,30.6-16.21,54.42-33.42,78.46-12.33,16.14-22.65,32.78-31.75,50.81l-2.65,1.67Z"/>
    <path class="cls-1" d="M813.67,408.42c-5.98,4.97-8.64,12.23-16.46,15.03,9.51-13.9,16.95-26.81,22.64-41.81,8.12-21.4,20.52-31.88,40.64-42.35,2.48-1.29,7.4-.6,8.56,1.74,5.89,11.88-5.53,22.86-16.64,30.86-14.59,10.51-27.18,22.17-38.75,36.52Z"/>
    <path class="cls-1" d="M418.36,500.95c-2.33-21.74-5.25-42.12-9.23-63.19-1.47-7.8-1.2-15.74-1.23-23.57,1.44-10.19,1.96-19.46,4.9-30.41,5.83,20.76,11.43,41.5,11.49,63.19l.21,73.71c-4.96-5.8-5.37-12.57-6.14-19.73Z"/>
    <path class="cls-1" d="M514.89,517.01c-1.88-2.46-1.56-6.05-1.05-9.54l4.22-29.3,6.1-28.58c2.86-13.42,3.03-26.64,2.47-40.36-.31-7.81,4.59-15.14,11.48-19.22,1.95,7.3,2.19,14.2,1.29,21.27-4.03,31.9-18.98,61.19-22.89,92.61l-1.63,13.13Z"/>
    <path class="cls-1" d="M80.32,383.46c-11.38,18.48-19.49,37.06-27.71,57.03,2.42-29.28,12.99-52.26,28.38-75.73,5.3,1.63,3.39,12.11-.67,18.7Z"/>
  </g>
</svg>