<svg id="female" xmlns="http://www.w3.org/2000/svg" version="1.1" viewBox="0 0 900 1140"><g id="Glutes"><path fill="#8c000a" d="M631.6,433.07c-.46-.03-.93-.04-1.39-.05-10.33.78-25.99,6.05-31.89,14.38-12.08,17.06-22.14,57.56-20.98,77.8.97,16.89,11.65,33.04,14.55,49.64,11.6-13.15,21.78-13.59,38.49-12.75,34.52,2.31,62.2-10.15,62.78-47.98.34-22.24,2.98-41.36-13.61-59.07-12.59-13.96-29.45-21.13-47.96-21.97Z"/><path fill="#8c000a" d="M712.46,551.15c17.63,13.2,35.77,10.94,56.29,10.77,10.6.24,19.14,2.37,26.72,10.44.78.84,1.53,1.69,2.26,2.57,3.42-16.92,9.27-24.16,12.91-39.16,1.56-6.2,2.19-12.59,1.88-18.98-.87-18.79-9.54-49.33-18.79-66.37-4.34-7.99-17.95-14.65-27.01-16.45-4.29-.83-8.68-.98-13.01-.43-17.99,2.4-34.65,10.51-46.07,25.05-11.44,14.57-11.52,27.84-11.18,45.47.34,18.04-.18,34.97,16,47.08Z"/></g></svg>