<svg id="female" xmlns="http://www.w3.org/2000/svg" version="1.1" viewBox="0 0 900 1140"><g id="traps"><path fill="#8c000a" d="M696.34,343.87c7.11-15.74,16.2-36.58,24.48-51.6,12.37-23.4,17.7-37.23,17.92-63.91.08-9.36,1.37-22.64,8.96-28.78,7.75-6.16,19.6-8.54,28.72-12.41-35.7-15.54-69.88-32.87-69.83-76.52,0-3.73-4.59-2.95-7.33-2.73-1.12.68-2.88,1.42-2.94,2.65-.28,5.37-.18,12.32-.17,17.58l.1,48.35-.08,110.67c0,17.91-.5,39.02.15,56.71Z"/><path fill="#8c000a" d="M647.21,205.64c5.93,14.87,3.01,36.52,7.06,52.69,3.5,13.99,9.88,25.01,16.42,37.42,8.6,16.82,15.08,32.1,22.79,49.11-.48-16.49,0-33.92-.02-50.53l.02-119.9-.03-41.19c.02-6.76.17-13.8-.02-20.57-.06-2.29-.33-2.55-1.58-3.92-2.93-1.21-5.06-1.05-8.24-.76-1.55,12.99-2.94,26.12-10,37.49-12.36,19.91-38.95,32.95-59.99,41.72,9.82,3.27,29.54,8.29,33.58,18.42Z"/><path fill="#8c000a" d="M226.88,190.75c11.8-1.08,24.54-1.03,35.74-2.27,4.7-.73,8.63-1.47,13.23-2.74-10.68-5.72-27.82-13.86-34.24-23.75-1.71-2.63-2.66-5.95-3.58-8.96-2.83,12.73-6.96,25.38-11.16,37.72Z"/><path fill="#8c000a" d="M195.56,191.22c-1.29-4.02-10.66-35.42-11.48-36.5-4.74,16.77-23.44,23.11-37.66,31.02,5.69,1.56,9.71,2.14,15.57,2.95,10.97,1.08,23.19.42,33.56,2.53Z"/></g></svg>