<svg id="female" xmlns="http://www.w3.org/2000/svg" version="1.1" viewBox="0 0 900 1140"><g id="bi"><path fill="#8c000a" d="M328.81,292.37c-4.26-17.21-14.61-46.16-34.31-50.68-1.88,2.4-2.46,4.36-1.88,7.49,3.3,17.96,6.54,24.51.56,42.2,3.22,14.79,19.58,76.49,35.74,78.42l.95-.31c10.94-18.45,4.03-56.56-1.06-77.12Z"/><path fill="#8c000a" d="M126.44,241.66c-29.72,12.48-37.06,66.1-39.44,94.67-.57,6.93.37,29.48,6.76,33.58l.78.05c20.94-17.33,28.37-51.97,34.69-78.06-4.28-14.17-4.97-21.51-.7-36.03,1.12-3.8,3.72-13.24-2.08-14.21Z"/></g></svg>