<svg id="female" xmlns="http://www.w3.org/2000/svg" version="1.1" viewBox="0 0 900 1140"><g id="Teres_Major"><path fill="#8c000a" d="M755.71,206.29c-1.04-.08-2.08-.12-3.12-.12-9.55,1.25-9.5,4.77-10.35,14.02-1.65,17.93-2.07,34.25-7.83,51.51,7.31-6.3,13.44-14.04,19.69-21.41,11.91-13.31,19.31-21.02,38.23-19.92-8.62-9.86-22.78-23.12-36.61-24.08Z"/><path fill="#8c000a" d="M636.78,251.19c6.12,7.28,11.48,13.83,18.39,20.39-1.27-3.83-2.19-7.18-3.11-11.1-3.73-16.07-2.66-32.78-5.68-48.89-.91-4.85-6.5-5.21-10.59-5.44-15.07,1.81-28.7,12.5-37.86,24.05,18.47-1.43,27.59,7.76,38.85,20.99Z"/><path fill="#8c000a" d="M609.94,268.72c9.48,7.88,22.3,9.19,34.14,8.05,1.36-.14,2.71-.31,4.05-.52,1.97-.38,4.41-.78,6.32-1.26-4.68-4.85-9.05-9.57-13.53-14.58-10.08-11.28-21.18-27.77-38.02-27.67-2.85.52-2.87.07-4.78,1.66.28,3.52,3.08,8.57,3.76,12.12,1.73,8.97.21,15.67,8.06,22.19Z"/><path fill="#8c000a" d="M782.11,233.2c-14.89,4.22-21.55,14.05-31.38,25.38-4.84,5.65-9.85,11.14-15.03,16.47,3.4.75,7.94,1.8,11.43,1.88,11.89.9,23.32-.23,32.82-8.14,7.51-6.26,6.2-14.87,8.18-23.46.5-2.06,3.3-8.82,4.25-11.21-2.41-1.77-7.24-1.11-10.27-.9Z"/></g></svg>