<svg id="female" xmlns="http://www.w3.org/2000/svg" version="1.1" viewBox="0 0 900 1140"><g id="tri"><path fill="#8c000a" d="M558.58,352.55c7.58-16.18,11.18-14.18,23.03-25.2,10.16-10.83,19.74-28.24,21.71-42.98.72-5.42-1.68-17.5-2.26-23.05-.73-6.96-1.99-20.73-6.84-25.47-11.99,7.61-30.89,37.43-34.29,51.8-5.9,24.92-5.36,47.99-5.04,73.27,1.21-2.73,2.55-5.62,3.7-8.37Z"/><path fill="#8c000a" d="M795.39,235.59c-6.67,9.96-4.67,18.56-7.28,29.02-5.78,23.21,4.93,48.79,21.89,64.72,11.42,10.73,14.95,8.32,21.93,25.65l2.56,6.41c.11-7.78.95-18.09.61-25.51-.8-17.25-2.65-40.73-8.3-56.84-3.3-9.42-22.99-38.99-31.41-43.47Z"/><path fill="#8c000a" d="M604.59,292.36c-5.43,13.78-12.94,31.89-25.06,40.77-16.13,11.82-15.84,13.87-23.17,32.34,2.4-.85,5.37-1.99,7.77-2.67,6.93-1.5,9.7,1.15,13.71,6.5,3.92-11.27,10.52-17,16.23-26.77,3.68-6.31,15.88-44.35,10.53-50.17Z"/><path fill="#8c000a" d="M827.94,363.22l5.94,2.37c-7.38-16.66-9.18-23.01-24.89-33.33-3.93-2.58-9.04-9.73-11.82-13.49-3.81-4.85-10.84-24.47-12.65-25.98-1.84,14.25,5.22,40.02,12.46,52.12,5.82,9.72,10.91,12.48,14.74,24.71,4.89-6.8,7.78-8.34,16.22-6.4Z"/><path fill="#8c000a" d="M309.52,373.81c6.33,3.89,13.27,5.57,20.34,9.99-1.02-11.58-4.61-11.64-11.84-20.03-11.19-12.99-15.9-29.39-20.15-45.62-.92-3.41-4.41-17.6-5.84-19.72-.79,18.77,10.75,37.28,14.4,55.25,1.08,5.34.21,15.88,3.1,20.13Z"/><path fill="#8c000a" d="M114.06,373.67c.71-6.07,1.21-17.14,2.62-22.51,2.55-9.69,16.64-44.51,13.86-52.79-7.26,22.13-10.16,46.35-25.41,64.72-5.32,6.41-13.13,11.59-12.28,20.9,9.03-5.78,13.6-6.17,21.21-10.31Z"/><path fill="#8c000a" d="M84.72,332.43c.88-16.18,3.82-30.97,8.23-46.51-.72-1.26-2.74-5.02-3.58-5.86-5.17,20.7-5.04,42.6-9.84,61.31,1.53,2.2,3.12,4.4,4.5,6.69,1.04-1.41.51-12.34.69-15.62Z"/><path fill="#8c000a" d="M338.57,347.73l.44-.47c1.35-1.77,2.74-3.68,4.2-5.34-1.98-8.8-8.06-59.48-10.52-61.92-1.02,2.3-1.6,3.63-2.9,5.77,4.61,16.61,7.9,33.8,8.29,51.09.04,1.78-.34,10.28.49,10.88Z"/></g></svg>