<svg id="female" xmlns="http://www.w3.org/2000/svg" version="1.1" viewBox="0 0 900 1140"><g id="Hamstings"><path fill="#8c000a" d="M767.64,564.62c-1.63.02-3.25.09-4.88.21,13.76,47.18,7.89,87,2.79,134.79-2.58,24.19,8.42,52.69,21.46,72.92l.12-11c.05-20.99,2.76-42.95,5.16-63.86,3.78-32.88,33.7-133.39-24.66-133.06Z"/><path fill="#8c000a" d="M616.49,564.98c-8.39,1.35-16.3,3.89-21.27,11.28-13.55,20.15-8.81,62.77-4.27,85.87,6.12,31.13,9.14,58.31,10.95,89.81.19,3.3-.43,18.67.69,19.93,32.24-50.46,18.51-77.26,15.66-131.12-1.58-25.66,1.2-51.41,8.22-76.14-3.69-.02-6.32-.08-9.99.37Z"/><path fill="#8c000a" d="M648.1,657.69c-.18-10.77-2.54-19.77-5.6-30.06-4.65-16.77-9.68-33.35-11.77-50.67-.25-2.06-.63-7.84-1.93-9.02-18.5,53.66-1.48,159.75,18.49,211.65l3.29,7.19c-4.09-42.55-1.75-86.33-2.48-129.09Z"/><path fill="#8c000a" d="M768.25,614.67c-.52-12.21-2.09-24.35-4.66-36.3h0c-1.16-4.45-2.21-7.87-3.71-12.22-.25,4.04-.72,7.62-1.25,11.64.9.1,2.01.2,3.06.32-1.05-.12-2.16-.22-3.06-.32-3.64,20.29-8.63,39.41-14.33,59.2-1.95,6.77-3.11,12.5-3.19,19.51.11,23.39.1,46.78-.03,70.17,0,9.78.11,40.98-1.52,50.14.09,2.8-.57,7.23-.91,10.16,19.95-44.56,31.75-123.71,29.61-172.31Z"/><path fill="#8c000a" d="M738.07,764.51c.53-8.4.33-18.39.39-26.96.16-15.61.2-31.22.12-46.82-.01-4.76.31-24.11-.44-27.43-6.72,29.77-12.3,64.14-10.01,94.79.82,10.99,4.5,23.35,5.96,34.64,2.39-8.85,3.56-19.02,3.98-28.22Z"/><path fill="#8c000a" d="M650.9,663.36c-.52,17.02-.21,37.08-.13,54.26.09,20.37-1.16,55.3,4.34,74.35l1.36-6.6c1.64-8.78,3.6-18.35,4.4-27.17,2.15-23.61-.74-48.72-5.21-71.93-1.15-5.98-3.05-17.75-4.76-22.91Z"/></g></svg>