<svg id="female" xmlns="http://www.w3.org/2000/svg" version="1.1" viewBox="0 0 900 1140"><g id="lower_back"><path fill="#8c000a" d="M719.26,443.52c10.85-7.41,21.71-11.3,34.75-13.31-7.14-7.57-14.79-14.46-20.04-23.47-5.24-9-7.32-19.31-11.6-28.62-3.73-8.13-9.11-14.46-12.51-23.02-1.52-3.84-4.54-18.49-6.17-20.07-1.69,3.61-7.04,14.19-7.08,17.52-.46,39.42-.98,80.81-.3,120.1,6.59-13.74,10.72-19.76,22.94-29.12Z"/><path fill="#8c000a" d="M685.15,334.94c-2.27,9.82-3.66,17.5-8.48,26.49-3.28,6.12-8.19,13.17-10.78,19.35-4.23,10.09-6,19.01-11.95,28.52-5.27,8.42-12.01,13.47-18.07,20.57,14.3,2.9,24.72,5.47,36.74,14.57,10.39,8.43,15.51,15.67,20.88,28.07-.46-39.96.69-80.83-.56-120.77-.08-2.71-5.77-15.04-7.78-16.79Z"/></g></svg>