<?xml version="1.0" encoding="UTF-8"?>
<svg id="Layer_1" data-name="Layer 1" xmlns="http://www.w3.org/2000/svg" viewBox="0 0 900 1140">
  <defs>
    <style>
      .cls-1 {
        fill: #fff200;
      }
    </style>
  </defs>
  <g id="forearm_flexors" data-name="forearm  flexors">
    <path class="cls-1" d="M820.34,437.87c-3.99,6.25-7.16-3.9-19.19-10.56l18.38-20.35c11.12-12.32,22.3-23.43,35.38-33.56l13.79-13c-.59,13.54-5.99,26.25-13.96,36.5l-15.94,17.5c-6.8,7.46-12.81,14.6-18.46,23.47Z"/>
    <path class="cls-1" d="M504.97,517.37l-12.51,6.75c-.86.46-3.58,1.18-3.78.34l-.89-3.7c3.4-16.89,4.43-33.17,2.79-50.34-.28-20.45-.96-40,3.88-60.76l7.5,38.9c2.83,14.69,2.02,29.51,1.79,44.5l1.21,24.31Z"/>
    <path class="cls-1" d="M507.55,506.34c.13-16.47,1.2-31.97-1.43-47.63l-7.2-42.76c-3.49-20.77-.45-37.18,10.41-55.93,17.97,32.62,16.88,68.3,9.36,102.76-3.97,18.17-6.34,35.53-8.7,54.68-2.89-2.94-2.47-6.86-2.43-11.12Z"/>
  </g>
</svg>