<svg id="female" xmlns="http://www.w3.org/2000/svg" version="1.1" viewBox="0 0 900 1140"><g id="Tibialis_Anterior"><path fill="#8c000a" d="M261.72,939.21c-.45,8.67-1.15,17.32-2.11,25.95-.52,4.97-2.16,14.41-1.54,18.7.94,1.32.35.83,1.85,1.49,1.46-.17,2.08-.02,3.16-.79,2.85-16.4,6.07-32.74,9.66-49,6-26.89,13.35-56.89,14.53-84.33.54-12.56-1.65-57.66-6.28-67.81-24.16,43.24-16.93,107.07-19.26,155.78Z"/><path fill="#8c000a" d="M140.59,783.49c-3.45,18.04-6.64,42.49-6.31,60.87.55,31.53,8.72,63.55,15.56,94.18,3.44,15.4,6.34,31.17,9.33,46.68,2.48-.17,3.19.21,4.91-.97.23-1.21-3.59-39.02-3.9-43.35-2.71-37.92,4.94-125.71-19.59-157.41Z"/></g></svg>