<svg id="female" xmlns="http://www.w3.org/2000/svg" version="1.1" viewBox="0 0 900 1140"><g id="Adductor"><path fill="#8c000a" d="M632.06,565.84c3.24,33.56,14.08,58.93,20.48,90.67,1.68,7.64,3.15,14.31,4.29,22.04,2.95-13.58,5.77-25.83,10.65-38.97,3.27-8.8,7.81-21.4,10.3-29.95,2.3-7.88,8.05-52.91,5.05-57.52-17.35,12.74-29.72,13.38-50.77,13.72Z"/><path fill="#8c000a" d="M732.23,677.98l4.39-20.66c5.08-24.75,13.36-47.97,18.08-72.7,1.04-5.44,2.49-13.48,2.66-18.84-15.07-.08-26.62-.54-40.79-7.25-2.83-1.34-8.11-5.42-10.21-6.29-.43,15.79.29,29.78,3.01,45.49,3.28,18.99,11.18,36.56,16.78,54.97,2.66,8.73,3.84,16.82,6.09,25.28Z"/><path fill="#8c000a" d="M192.13,522.31c-11.35-19.94-22-40.03-35.89-58.34-2.82-3.71-6.48-9.01-9.96-11.88,3.66,27.57,9.91,54.73,18.67,81.13,13.46,40.48,26.94,65.05,31.13,108.58.04,1.79-.27,2.89.56,4.12.93-2.14.95-2.53,1.34-4.88,1.33-9.56,3.63-17.58,5.36-28.66,3.18-20.39,6.74-47.3,3.21-67.76-.57-3.32-12.03-18.12-14.41-22.31Z"/><path fill="#8c000a" d="M255.18,539.22c7.57-22.24,13.52-45.01,17.8-68.11.8-4.13,3.23-15.47,2.48-18.99-18.22,21.6-31.32,45.06-44.99,69.62-7.75,13.93-14.76,15.84-15.62,33.06-1.45,28.97,3.96,55.71,9.12,83.9.46,2.77.87,5.64,1.51,8.36,1.72-18.64,4.04-32.59,9.42-50.74,5.79-19.51,13.65-37.99,20.28-57.1Z"/><path fill="#8c000a" d="M659.37,686.11c-.18,3.69,1.79,13.89,2.47,17.68l.32.31c2.18-22.02,4.55-41.96,9.28-63.63.23-1.04.87-3.37.27-4.14-5.68,13.85-11.61,34.74-12.35,49.77Z"/><path fill="#8c000a" d="M727.61,705.81c.38-2.83,2.59-17.06,2.43-19.62-.98-15.65-6.66-35.54-12.62-50.22-.14-.17-.27-.34-.41-.51,2.02,12.97,5.05,25.28,6.89,38.56,1.45,10.44,1.78,22.98,3.41,32.78.44-.56.32-.23.3-.99Z"/></g></svg>