<svg id="female" xmlns="http://www.w3.org/2000/svg" version="1.1" viewBox="0 0 900 1140"><g id="rear_sh"><path fill="#8c000a" d="M580.64,245.07c11.39-14.33,33.11-39.27,52-41.3,3.14-.34,7.24-.09,10.45.1-8.61-7.27-30.43-16.01-40.94-15.08-.42.04-.83.08-1.25.14-11.48,1.87-18.5,4.4-25.96,14.3-11.56,15.34-14.12,48.57-12.08,67.55,6.1-8.41,11.4-17.01,17.77-25.7Z"/><path fill="#8c000a" d="M777,212.3c11.73,8.41,26.03,24.17,34.42,36.11,5.52,7.58,9.66,14.28,14.62,22.24,2.41-20.14.36-52.65-12.55-68.85-6.68-8.38-14.7-11.91-25.1-13.03-1.59-.17-3.17-.31-4.76-.43-10.86,2.46-28.74,8.78-37.18,15.92,12.8-2.01,20.01.47,30.55,8.04Z"/></g></svg>