<?xml version="1.0" encoding="UTF-8"?>
<svg id="female" xmlns="http://www.w3.org/2000/svg" version="1.1" viewBox="0 0 900 1140">
  <!-- Generator: Adobe Illustrator 29.8.2, SVG Export Plug-In . SVG Version: 2.1.1 Build 3)  -->
  <g id="forearms">
    <path fill="#8c000a" d="M867.21,491.13c-1-3.33-2.49-6.51-3.48-9.85-2.09-7.13-3.55-14.63-4.91-21.93-3.54-18.99-8.74-82.74-28.15-91.84-3.77-1.77-7.31-2.1-11.4-1.72-11.7,8.71-7.8,28.91.16,37.61,20.29,22.19,30.06,46.5,35.76,75.54.91,4.61,1.91,11.01,3.56,15.42.54.18,1.09.36,1.64.54,2.28.16,4.62.57,6.7-.24.7-1.36.56-2.06.12-3.53Z"/>
    <path fill="#8c000a" d="M572.41,399.62c6.17-8.54,9.08-33.15-5.28-34.36-6.15,1.23-11.62,2.87-15.04,8.63-19.94,33.63-15.55,74.49-27.16,110.77-1.17,3.67-4.87,8.78-.54,11.05,1.93.09,5.13-.4,6.66-1.45,6.71-28.14,10.95-55.29,29.2-78.68,4.1-5.26,8.33-10.53,12.16-15.96Z"/>
    <path fill="#8c000a" d="M582.34,393.87c-23.94,24.72-37.91,48.59-44.51,82.48-.77,3.97-3.97,14.77-3.3,17.97,1.15-.18,3.59-.2,4.05-1.47,5.04-13.86,11.1-26.09,18.37-38.41,6.19-10.49,26.75-50.93,25.38-60.58Z"/>
    <path fill="#8c000a" d="M806.75,393.64c7.24,29.17,21.67,53.17,36.34,78.94,3.4,5.97,4.76,14.82,8.29,20.8,1.83.9,2.37.85,4.34,1.06-6.29-33.17-13.11-59.78-35.51-86.01-3.13-3.67-10.03-12.04-13.47-14.79Z"/>
    <path fill="#8c000a" d="M524.9,475.37c7.96-32.79,6.59-67.6,22.39-97.91,1.63-3.12,4.73-8.89,5.1-12.16.32-2.83.02-14.06-1.67-15.81-17.97,31.27-20.53,63.69-23.45,98.82-.74,8.9-2.26,19.09-2.76,27.57l.21.13.18-.63Z"/>
    <path fill="#8c000a" d="M864.87,475.84c-.53-9.91-1.82-16.97-2.96-29.77-2.87-32.02-5.76-67.96-23.36-96.13-.22-.18-.43-.36-.64-.54-1.96,20.21.04,17.85,8.17,36.05,12.21,27.33,10.82,62.01,18.81,90.39Z"/>
    <path fill="#8c000a" d="M797.93,351.71c3.42,12.45,2.97,32.93,12.46,40.78l-.16-1.04c-2.07-14.06,1.47-28.28-12.3-39.74Z"/>
    <path fill="#8c000a" d="M579.25,392.5c9.22-11.43,9.75-25.32,11.54-40.2-14.19,17.53-8.41,18.27-11.73,38.61-.13.8-.05.65.19,1.59Z"/>
    <path fill="#8c000a" d="M349.37,356.62c-1.33-2.76-3.56-9.24-5.18-11.34-8.71,10.51-12.21,28.37-10.97,41.69,2.27,24.47,13.14,46.36,20.82,69.33,3.14,9.4,4.74,18.01,6.21,27.72.23,1.87.25,4.53,1.44,5.75,1.73.05,2.89-.92,4.44-1.82-3.16-15.43-5.26-33.13-6.4-48.6-2.08-28.23,2.31-56.47-10.35-82.72Z"/>
    <path fill="#8c000a" d="M89.36,386.7c1.06-12.94-2.03-31.23-10.6-41.32-18.51,30.01-14.15,67.39-16.45,101.82-.52,5.16-2.05,22.35-3.2,26.38-.02,2.26-2.09,11.73-2.63,14.29l5.29,3.13c.76-10.23,2.6-20.33,5.48-30.16,7.33-24.75,19.98-47.9,22.11-74.13Z"/>
    <path fill="#8c000a" d="M330.56,388.7c-5.27-5.47-14.09-9.26-21.3-11.17,2.57,11.76,6.67,25.27,11.59,36.18,8.93,19.82,20.61,38.48,27.57,59.18,2.27,6.76,4.26,12.92,5.26,20.02.16,1.11.72,1.76,1.47,2.53,1.31-.31.89-.14,2.11-.83,6.92-9.69-15.04-62.76-19.45-74.97-3.6-9.96-4.54-21.2-7.25-30.95Z"/>
    <path fill="#8c000a" d="M112.96,379.26l-.39-1.01-1-.07c-8.39,2.86-12.63,4.47-19.24,10.43-2.88,9.83-4.13,21.16-7.53,30.78-9.14,25.88-18.64,45.11-20.99,72.94,1.16,1.11,2.51,2.48,3.69,3.53,1.48-1.23,1.28-3.19,1.66-5.23,6.57-35.23,30.92-63.39,40.05-97.69,1.22-4.58,3-8.99,3.77-13.67Z"/>
    <path fill="#8c000a" d="M60.03,447.42c1.11-20.11,1.7-40.24,2.43-60.39-5.8,20.73-6.9,42.15-9.02,63.43-1.26,12-3.03,23.93-5.31,35.77l6.19.68c1.25-6.5,2.37-13.03,3.36-19.58.82-6.46,1.31-13.58,2.35-19.9Z"/>
    <path fill="#8c000a" d="M369.71,455.57c-1.55-13.72-4.08-55.95-9.42-67.03,1.61,27.59.73,55.16,5.28,82.53.87,5.26,1.76,10.52,2.69,15.78l6.31-.2c-1.94-10.66-3.68-20.58-4.86-31.07Z"/>
  </g>
</svg>