<?xml version="1.0" encoding="UTF-8"?>
<svg id="female" xmlns="http://www.w3.org/2000/svg" version="1.1" viewBox="0 0 900 1140">
  <!-- Generator: Adobe Illustrator 29.8.2, SVG Export Plug-In . SVG Version: 2.1.1 Build 3)  -->
  <g id="front_sh">
    <path fill="#8c000a" d="M329.87,277.58c-.08.23-.17.46-.26.68l-4.11-7.88c-5.09-9.3-10.32-19.73-15.98-28.59-6.43-9.54-14.86-18.85-20.88-28.58-7.55-12.21-13.78-15.07-25.93-21.28.58-.15,1.15-.29,1.73-.42,8.59-.13,21.63,1.16,34.23,8.85,23.38,14.27,35.46,44.59,31.2,77.22Z"/>
    <path fill="#8c000a" d="M159.83,191.55c-4.8,3.09-13.01,6.47-16.92,10.44-8.34,8.68-14.16,19.74-21.93,29.05-8.73,10.48-14.69,22.69-21.46,34.41-2.2,4.18-4.47,8.32-6.81,12.42-4.37-32.74,7.71-63.2,31.16-77.51,13.48-8.23,27.46-9.13,35.96-8.81Z"/>
  </g>
</svg>