<?xml version="1.0" encoding="UTF-8"?>
<svg id="female" xmlns="http://www.w3.org/2000/svg" version="1.1" viewBox="0 0 900 1140">
  <!-- Generator: Adobe Illustrator 29.8.2, SVG Export Plug-In . SVG Version: 2.1.1 Build 3)  -->
  <g id="lats">
    <path fill="#8c000a" d="M659.51,388.67c4.74-12.97,8.94-18.69,15.54-30.52,4.07-7.29,6.87-21.1,8.14-29.35-5.34-12.65-17.7-40.41-25.2-50.92-24.07,2.54-33.66,5.57-53.48-10.07,3.26,25.74,4.75,39.21,14.41,63.49,3.24,7.99,7.1,15.72,11.54,23.11,15.16,25.67,20.07,28.91,16.01,59.61,6.7-6.71,10.33-16.49,13.04-25.35Z"/>
    <path fill="#8c000a" d="M783.3,281.75c.22-2.36,2.19-11.85.97-13.17-11.84,10.01-20.14,11.9-35.92,11.32-5.21-.19-11.48-1.77-16.47-2.04-5.77,8.92-11.61,21.63-16.27,31.25-2.65,5.48-6.98,14.07-9.11,19.58,1.35,7.54,3.51,20.11,6.86,26.81,6.84,13.74,12.26,20.63,17.25,35.69,3.22,9.22,5.59,15.58,12.43,22.92-4.73-28.57.64-33.65,15.11-57.81,13.01-21.73,22.81-49.33,25.15-74.55Z"/>
  </g>
</svg>