<svg id="Layer_1" xmlns="http://www.w3.org/2000/svg" version="1.1" viewBox="0 0 900 1140"><g id="Front_sh"><path fill="#8c000a" d="M126.88,190.21c6.75-.27,13.65,1.32,20.01,3.43-6.4,5.89-15.33,10.05-20.73,17.21-5.45,7.37-10.45,17.11-13.22,25.86-4.61,14.55-6.73,18.85-18.34,28.51-4.06,3.14-6.64,5.14-11.13,7.75-10.01-34.58,4.03-77.09,43.41-82.76Z"/><path fill="#8c000a" d="M300.48,190.3c2.13.09,4.5.32,6.56.92,36.86,10.63,47.4,47.18,38,81.34-2.89-1.51-6.22-3.99-8.96-5.92-3.66-2.82-10.01-8.06-12.37-11.84-8.96-14.31-10.19-31.93-22.14-45.38-5.73-6.45-12.7-9.83-19.37-15.15l-.54-.44,1.67-.57c6.61-2.25,10.13-2.54,17.16-2.96Z"/></g></svg>