<svg id="Layer_1" xmlns="http://www.w3.org/2000/svg" version="1.1" viewBox="0 0 900 1140"><g id="Lower_back"><path fill="#8c000a" d="M676.14,338.91c2.62,2.66,9.26,17.72,9.56,21.63.77,14.47.61,29.34.43,43.86-.33,27.07.56,54.53-.26,81.56-4.4-5.77-10.82-17.47-15.04-24.28-9.21-14.8-18.98-22.98-34.27-30.41,10.62-13.51,10.48-21.14,16.38-36.17,1.08-2.76,8.27-12.62,10.23-16.11,7.61-13.56,10.33-25.19,12.98-40.07Z"/><path fill="#8c000a" d="M699.96,338.94c.36.62,5.47,21.08,6.51,24.88,3.52,12.86,15.56,25.04,19.11,36.16,4.58,14.35,5.11,19.17,14.61,31.24-15.83,7.58-24.18,14.84-34.07,29.72-5.37,8.29-9.79,17.18-15.26,25.2-1.42-25.88.14-55.07-.41-81.3-.28-13.67-.24-31.25.67-44.91.28-4.17,6.74-16.73,8.85-21Z"/></g></svg>