<svg id="Layer_1" xmlns="http://www.w3.org/2000/svg" version="1.1" viewBox="0 0 900 1140"><g id="Core"><path fill="#8c000a" d="M294.63,382.69c.78.75,1,1.73,1.15,2.74,3.44,22.5,1.38,41.12-17.07,56.43-6.35,5.27-8.06,8.49-17.21,9.8-5.59-5.82-3.04-14.86-3.29-21.96-.65-18.63,7.85-23.29,22.06-32.27,4.86-3.07,10.67-9.93,14.37-14.73Z"/><path fill="#8c000a" d="M133.44,382.72c3.13,2.89,6.34,7.76,10.75,11.61,8.05,7.04,23.25,12.68,25.23,23.49,1.32,7.2,3.07,27.18-.65,33.32-8.77.94-13.81-5.43-19.7-10.58-19.07-16.67-19.48-33.77-15.63-57.85Z"/><path fill="#8c000a" d="M134.71,358.84c2.74,1.3,9.6,9.61,12.81,11.84,6.19,4.31,12.73,7.01,18.72,11.57,1.91,6.3,2.94,16.44,2.27,22.95l-1.39.25c-11.08-3.54-25.88-16.76-32.36-26.95l-.05-19.67Z"/><path fill="#8c000a" d="M293.47,359.07c.44,1.4.72,16.31.8,18.91-10.29,15.21-17.42,19.09-33.28,28.17-.79-2.59-1-4.24-.94-6.72.48-19.76,2.8-17.67,17.98-26.49,3.58-2.08,11.94-10.45,15.44-13.88Z"/><path fill="#8c000a" d="M291.05,340.99c2.55.06,2.69-.34,4.6.76,2.67,15.23-18.69,28.94-30.07,34.82l-1.83.69-.99-.52c-1.51-3.78-.77-17.33,1.59-19.96,4.46-4.96,20.35-14.14,26.7-15.79Z"/><path fill="#8c000a" d="M132.6,340.71c9.88.42,22.91,8.61,30.52,14.89,4.42,3.65,3.44,16.19,3.32,22.19-5.22-1.4-15.02-7.5-19.18-11.19-10.44-9.28-13.42-12.24-14.66-25.89Z"/></g></svg>