<?xml version="1.0" encoding="UTF-8"?>
<svg id="Layer_1" xmlns="http://www.w3.org/2000/svg" version="1.1" viewBox="0 0 900 1140">
  <!-- Generator: Adobe Illustrator 29.8.2, SVG Export Plug-In . SVG Version: 2.1.1 Build 3)  -->
  <g id="Bi">
    <path fill="#8c000a" d="M798.24,291.96c4.36,2.82,16.58,36.5,18.7,42.53,2.54,7.23,10.49,19.01,12.09,25.97-12.51-9.6-26.43-44.55-30.62-60.1-.43-1.59-.24-6.54-.17-8.39Z"/>
    <path fill="#8c000a" d="M577.77,292.07c7.4,9.11-21.49,59.43-29.41,67.73l-.43-.39c-.11-2.8,8.79-18.38,11-22.47,4.22-7.82,5.2-16.72,8.38-23.97,3.04-6.93,7.19-13.06,10.45-20.9Z"/>
  </g>
  <g id="Tri">
    <path fill="#8c000a" d="M313.76,253.86c.06.04.12.07.18.11,27.99,17.98,42.58,28.72,49.36,62.95,1.56,7.89,6.49,38.01,2.98,43.47-4.28-1.85-17.05-7.19-20.23-9.77-16.05-13.01-40.21-78.54-32.29-96.75Z"/>
    <path fill="#8c000a" d="M114.12,254.44c7.17,4.31-4.3,46.44-7.49,53.68-5.98,13.55-12.81,31.76-23.45,42.31-2.42,2.4-16.08,7.89-19.64,9.42l-1.15.08-.71-.95c-.83-13.44.89-26.89,3.34-39.92,6.76-36.01,20.9-45.59,49.1-64.62Z"/>
    <path fill="#8c000a" d="M363.55,272.53c2.64,1.98,8.03,14.17,9.44,18,9.04,24.54,9.82,20.88.06,43.57-1.3,2.13-.67,1.81-2.59,2.59l-.98-.85c-2.23-6.03-2.66-14.16-4.22-20.47-4.67-18.8-8.4-24.03-1.71-42.84Z"/>
    <path fill="#8c000a" d="M64.93,272.1c2.19,4.11,3.99,10.3,4.22,14.98.11,2.79-.1,5.58-.62,8.32-1.81,9.87-5.84,19.76-7.07,29.89-.36,2.98-1.21,9.09-3.08,11.14l-1.21-.02-1.22-1.61c-1.56-3.69-5.82-13.74-6.66-17.04-2.63-10.37,10.25-36.55,15.64-45.66Z"/>
  </g>
</svg>