<svg id="Layer_1" xmlns="http://www.w3.org/2000/svg" version="1.1" viewBox="0 0 900 1140"><g id="Core"><path fill="#8c000a" d="M606.35,366.69c4.75,4.92,11.87,22.49,15.42,29.06,4.31,7.98,11.26,24.57,10.69,33.53l-1.17.34c-8.44-1.49-14.42-3.07-22.81-1.61-4.71-18.77-2.51-27.18-1.51-45.8.2-3.76-.36-11.48-.62-15.53Z"/><path fill="#8c000a" d="M769.78,366.81c.43,2.24-.41,11.77-.29,14.95.76,18.56,2.98,27.72-1.26,46.34-8-1.63-14.29-.08-22.09,1.58l-1.34-.05-.6-.91c.48-15.17,17.06-48.16,25.58-61.91Z"/></g></svg>