<?xml version="1.0" encoding="UTF-8"?>
<svg id="Layer_1" xmlns="http://www.w3.org/2000/svg" version="1.1" viewBox="0 0 900 1140">
  <!-- Generator: Adobe Illustrator 29.8.2, SVG Export Plug-In . SVG Version: 2.1.1 Build 3)  -->
  <g id="Nick">
    <path fill="#8c000a" d="M707.13,101.99c1.08.27,3.64,1.13,4.29,1.88,5.26,6.01,10.03,28.24,10.74,35.52-10.2-2.81-14.23-28.76-15.03-37.39Z"/>
    <path fill="#8c000a" d="M667.44,102.02l1.18.35c.75,1.08.85,1.35.7,2.96-1.05,11.21-4.92,25.63-13.3,33.47l-1.07.08c-1.6-4.57,6.96-33.27,12.49-36.85Z"/>
    <path fill="#8c000a" d="M717.23,106.55c3.24,1.21,5.76,3.77,8.18,6.14-.39,4.78-1.26,9.73-2.01,14.49l-.46.51-.7-.6c-1.04-5.15-4.86-16.43-5.01-20.53Z"/>
    <path fill="#8c000a" d="M658.45,107.02l.99.17c.31,1.88-4.87,18.51-5.63,21.69-1.43-4.43-2.09-11.76-2.38-16.43,2.64-2.49,4.03-3.4,7.02-5.43Z"/>
  </g>
  <g id="Nick1" data-name="Nick">
    <path fill="#8c000a" d="M210.08,200.46c-9.82-3.95-13.01-13.54-16.71-22.73-6.13-15.28-12.81-33.49-12.66-50.01,5.44,5.52,8.02,7.54,10.82,14.8,1.53,5.92,4.63,13.4,6.57,19.42,2.65,8.21,5.15,16.33,7.62,24.59,1.13,4.5,2.9,9.47,4.36,13.92Z"/>
    <path fill="#8c000a" d="M201.27,164.12c-1.69-5.51-6.99-19.34-7.86-24.13,4.36,2.92,7.12,4.54,11.99,6.54,2.52,13.11,3.85,26.79,2.94,40.13-1.6-3.02-5.66-17.95-7.07-22.55Z"/>
    <path fill="#8c000a" d="M208.34,186.67c-1.6-3.02-5.66-17.95-7.07-22.55-1.69-5.51-6.99-19.34-7.86-24.13,4.36,2.92,7.12,4.54,11.99,6.54,2.52,13.11,3.85,26.79,2.94,40.13Z"/>
    <path fill="#8c000a" d="M247.41,128.4c5.42,6.71-12.87,54.03-17.79,61.83-2.88,4.56-4.72,7.21-9.58,9.81-.15-.19-.68-.68-.56-1.12,5.32-20.47,12.15-41.64,20.04-61.25.73-1.82,6.85-8.15,7.9-9.28Z"/>
    <path fill="#8c000a" d="M207.68,146.91c5.09.44,8.27.34,13.42.14-1.49,8.32-2.41,15.64-2.76,24.11-.32,7.84.39,17.31-.65,24.91-.71,2.24-.7,2.68-2.27,4.32-5.21,1.06-5.26-13.13-5.14-16.54.47-12.57-.93-24.53-2.6-36.94Z"/>
    <path fill="#8c000a" d="M234.9,140.37c.16.29.33.58.49.87-3.88,11.56-8.53,22.82-11.5,34.69-.85,3.41-1.86,6.85-3.08,10.14l-.71-1.06c-1.12-8.99,1.17-29.33,3.4-38.32,4.49-2.15,7.29-3.4,11.4-6.31Z"/>
  </g>
</svg>