<svg id="Layer_1" xmlns="http://www.w3.org/2000/svg" version="1.1" viewBox="0 0 900 1140"><g id="for_arms"><path fill="#8c000a" d="M498.9,341.6c1.23,8.79.7,17.52,1.8,25.59,10.17-13.53,14.96-12.29,30.35-19.81-7.06,17.89-9.42,32.53-15.29,50.4-4.05,12.3-13.14,24.98-18.14,36.97-2.71,6.51-3.94,13.03-5.19,19.95-1.28-1.64-.62-4.35-1.76-7.76-.86-4.79-.87-11.86-1.28-16.92-1.21-14.95-1-28.36,1.12-43.21.87-6.11,2.75-13.43,3.52-19,1.71-12.37.46-14.3,4.86-26.21Z"/><path fill="#8c000a" d="M877.42,341.33c5.08,12.71,2.65,13.01,4.76,24.93,2.01,11.34,4.13,19.08,5.2,31.04,1.66,18.64-.67,33.91-1.56,52.26-.9,2.37-.42,2.16-2.13,3.5-1.67-6.73-1.5-9.98-4.38-17.24-4.76-13.23-14.64-25.86-18.87-39.18-5.28-16.65-8.34-32.44-14.47-48.99,15.26,6.94,20.75,6.25,29.86,19.97,1.13-7.79.93-17.96,1.59-26.3Z"/><path fill="#8c000a" d="M858.93,402.34c3.14,2.41,19.03,35.79,20.22,41.06,2.7,11.96,5.66,29.61,6.28,42.13-4.08-1.09-8.98-2.76-13.08-4.03-3.21-20.12-10.57-37.68-13.5-57.59-.9-6.14-.25-15.22.08-21.57Z"/><path fill="#8c000a" d="M516.96,402.32c2.74,6.21.52,26.23-1.16,32.89-3.89,15.43-9.03,30.47-11.69,46.23-3.55.96-8.34,2.86-11.9,4.15l-.73-.86c-1.07-9.78,5.44-42.28,9.67-51.16,4.69-9.84,11.11-20.94,15.8-31.24Z"/><path fill="#8c000a" d="M527.08,369.04c2.93.85,6.71,2.76,7.99,5.46,9.82,20.66-9.44,57.14-17.16,77.01-2.97,7.66-4.56,14.74-6.14,21.8-.73,3.15-.55,5.47-3.92,6.29-1.17-2.05,1.85-13.26,2.74-15.82,8.16-23.6,11.25-43.44,9.92-68.36-.26-4.94,4.79-20.35,6.57-26.38Z"/><path fill="#8c000a" d="M848.48,369.17c2.88,2.08,3.62,8.66,4.72,12.08,5.24,16.27,1.2,31.71,3.69,48.58,1.25,8.49,13.7,45.2,12.03,50.04l-.89.08c-1.74-1.25-1.61-1.26-2.33-3.36-1.68-7.36-4.31-18.18-7.01-25.14-7.54-19.32-17.45-37.89-19.38-58.89-.97-10.48-1.44-17.97,9.16-23.38Z"/><path fill="#8c000a" d="M832.04,368.07c5.97,9.54,3.47,26.47,6.99,38.9,7.34,25.94,19.53,43.7,24.07,70.85-2.26-.74-4.86-2.1-7.05-3.15-2.02-9.03-3.75-19.38-6.64-28.07-9.67-29.15-17.79-46.6-17.37-78.53Z"/><path fill="#8c000a" d="M544.48,367.99c.33,3.01-.19,8.14-.26,11.3-.54,25.52-11.08,47.26-18.13,71.28-2.54,8.66-3.85,15.1-5.45,24.07-2.28,1.22-4.63,2.11-7.03,3.09-.01-14.51,18.37-51.02,22.85-66.59,4.56-15.85,1.77-30.97,8.02-43.15Z"/><path fill="#8c000a" d="M490.68,446.94c1.14,3.4.48,6.12,1.76,7.76-.09,2.2-.93,7.1-1.26,9.48-.48-5.74-.44-11.48-.49-17.24Z"/><path fill="#8c000a" d="M883.7,453.06c1.71-1.34,1.22-1.13,2.13-3.5l-.46,12.78c-.92-2.76-1.73-6.34-1.67-9.27Z"/></g><g id="Forearms"><path fill="#8c000a" d="M382.56,318.14c3.67,3.22,6.51,10.22,9.38,14.1,17.91,24.24,5.82,37.79-2.29,63.38-5.43,17.57-7.06,36.09-4.76,54.33-.04,1.42-.07,1.43-.48,2.81-.26-.36-.59-.78-.67-1.19-.63-3.19-1.23-6.72-1.84-9.9-.92-4.83-2.24-10.4-3.53-15.06-12.97-46.63-14.18-63.79,4.19-108.47Z"/><path fill="#8c000a" d="M45.97,318.26c1.76,2.52,3.79,7.99,4.99,10.84,14.74,35.1,8.79,68.19-2.06,103.08-1.06,3.43-3.49,19.36-5,20.83v-1.61c1.48-20.06,1.36-44.14-6.89-62.5-14.79-32.93-12.18-41.72,8.96-70.64Z"/><path fill="#8c000a" d="M401.53,405.64c2.55,8.53,2.71,19.92,1.31,28.7-1.49,4.86-8.55,24.52-12.39,26.29-1.87-1.6-1.02-4.91-.77-7.23,2.91-16.55,7.35-31.58,11.85-47.76Z"/><path fill="#8c000a" d="M402.75,386.19c-2.62,19.57-9.89,38.39-13.68,57.77-.38,1.96-.91,5.56-1.59,7.32-3.15-8.26-.28-40.3,2.53-48.31,2.97-8.52,9.09-29.83,13.36-37.21l.64.62c.53,3.26.29,6.02.14,9.31-.52,3.51-.93,6.97-1.41,10.49Z"/><path fill="#8c000a" d="M413.85,467.56l-8.13-3.53-.4-16.26c.58-16.87,1-31.67-1.25-48.48-.49-3.62,1.51-21.13,2.88-24.6,8.4,24.86,5.89,42.53,5.7,68.1-.07,8.18,1.02,16.69,1.2,24.77Z"/><path fill="#8c000a" d="M413.85,467.56l-8.13-3.53-.4-16.26c.58-16.87,1-31.67-1.25-48.48-.49-3.62,1.51-21.13,2.88-24.6,8.4,24.86,5.89,42.53,5.7,68.1-.07,8.18,1.02,16.69,1.2,24.77Z"/><path fill="#8c000a" d="M404.16,375.7c-.52,3.51-.93,6.97-1.41,10.49-2.62,19.57-9.89,38.39-13.68,57.77-.38,1.96-.91,5.56-1.59,7.32-3.15-8.26-.28-40.3,2.53-48.31,2.97-8.52,9.09-29.83,13.36-37.21l.64.62c.53,3.26.29,6.02.14,9.31Z"/><path fill="#8c000a" d="M80.27,355.01l.56.07.21.66c-1.61,2.91-4.71,6.51-6.88,9.2-.53,9.58-2.78,32.8-6.24,41.49-5.96,14.99-13.9,31.58-20.35,46.79l-.33-.23c1.63-7.45,2.89-15.77,4.88-23.09,6.65-24.39,11.51-37.38,10.31-63.17,5.26-5.41,11.19-8.45,17.84-11.73Z"/><path fill="#8c000a" d="M347.08,354.74c5.57,1.18,14.59,8.16,19.26,11.72-1.09,25.8,2.97,34.86,9.13,59,2.28,9.26,4.34,18.58,6.2,27.93l-.39.1c-1.08-1.44-4.83-12.59-6.1-15.43-3.87-9.87-11.71-21.62-14.29-31.7-2.8-10.96-6.17-30.14-6.14-41.16-3.08-3.83-5.04-6.35-7.67-10.47Z"/><path fill="#8c000a" d="M21.9,374.45c1.12,1.43,2.94,19.82,2.97,22.78.33,7.86-2.24,16.86-2.02,24.6.4,14.39.42,28.26,0,42.65l-5.86,2.05-1.45.6-.63-.78c.15-7.55,1.2-15.36,1.1-22.99-.32-25.27-2.74-44.38,5.89-68.91Z"/><path fill="#8c000a" d="M24.69,364.93c2.09,1.68,9.28,23.3,10.83,27.32,7.23,18.8,7.72,38.85,6.07,58.66-.27-.21-.53-.43-.8-.64-5.31-28.38-16.76-56.88-16.1-85.33Z"/><path fill="#8c000a" d="M26.69,406.19c3.32,3.54,14.94,50.79,11.52,55.59-.18-.21-.8-.95-.91-1.13-12.46-20.65-13.73-32.12-10.6-54.46Z"/><path fill="#8c000a" d="M402.23,444.23c1.03,1.55,1.42,16.39,1.62,19.64l-6.35-1.43c-1.65-.31-1.6-.23-3-1.12.06-1.35,6.68-14.82,7.73-17.09Z"/><path fill="#8c000a" d="M25.87,443.65c1.14,1.17,7.95,15.9,8.37,17.79l-.96.57c-2.53.7-5.56,1.23-8.16,1.76l.74-20.12Z"/></g></svg>