<svg id="Layer_1" xmlns="http://www.w3.org/2000/svg" version="1.1" viewBox="0 0 900 1140"><g id="Tri"><path fill="#8c000a" d="M576.64,257.15c.75.39,1.05.82,1.17,1.6,4.13,27.41-15.57,45.91-38.46,56.88-14.67,7.04-25.85,7.3-36.21,21.01l-.7-.07c-1.06-2.78,1.68-17.65,2.4-20.48,6.08-23.56,14.46-32.62,36.72-41.06,9.41-3.56,26.35-12.51,35.08-17.89Z"/><path fill="#8c000a" d="M798.98,256.79c2.34.93,14.79,7.97,18.18,9.82,10.61,5.8,33.36,13.3,41.07,21.46,10.37,10.98,16.62,34.06,16.14,48.89-1.1-.15-9.56-10.3-13.18-11.7-18.77-7.26-36.87-13.63-50.79-29.05-11.7-12.97-12.44-22.88-11.42-39.41Z"/><path fill="#8c000a" d="M562.47,238.3c10.99-1.35,13.81,5.12,15.35,14.25-9.29,7.51-28.09,15.59-39.07,20.84-8.36,4-13.22,5.05-20.75,11.26-3.04,3.02-5.38,6.43-7.9,9.89,1.83-8.96,2.41-13.29,6.72-21.82,8.74-17.3,27.54-28.79,45.65-34.42Z"/><path fill="#8c000a" d="M809.01,238.32c7.48-.68,11.64,1.81,18.12,5.01,22.23,10.97,35.55,25.42,39.16,50.82l-4.44-6.24c-13.51-14.29-45.2-20.73-62.6-35.64.97-8.61,1.53-10.78,9.76-13.94Z"/><path fill="#8c000a" d="M573.42,292.07c.55,1.36-.02,2.83-.6,4.18-10.34,23.81-27.67,42.56-51.82,52.79-4.68,1.98-11.37,5.11-16.09,3.24-10.79-17.44,18.67-27.7,30.08-31.85,16.23-5.89,27.12-15.71,38.43-28.36Z"/><path fill="#8c000a" d="M802.68,292.12c4.83,4.23,9.2,9.78,14.69,14.34,11.43,10.04,25.81,14.09,39.42,20.03,9.6,4.19,20.81,13.62,15.4,25.22-.35.23-2.08,1.3-2.32,1.27-27.76-2.47-61.93-36.69-67.19-60.86Z"/><path fill="#8c000a" d="M815.91,324.04c3.24,1.82,7.6,7.24,10.88,9.55,14.2,9.98,18.01,14.55,22.27,31.38l-5.44,2.93c-2.21,2-3.81,4.21-5.63,6.55-5.42-12.74-10.25-25.19-17.02-37.3-2.2-3.93-3.76-8.79-5.05-13.11Z"/><path fill="#8c000a" d="M560.67,323.53c.78,4.88-9.59,21.91-11.97,27.26-3.25,7.31-6.56,15.97-10.14,23.05-1.42-1.76-3.04-3.54-4.55-5.24-1.68-1.17-4.48-2.58-6.35-3.6,6.59-25.19,14.37-23.55,33.01-41.47Z"/></g><g><path fill="#8c000a" d="M62.79,260.92l.51.59c1.03,7.89-6.13,17.87-8.74,25.51-5.15,15.06-10.18,27.95-18.16,41.75l-.44-.19c-.68-2.04,2.66-12.87,3.21-15.85,4.2-22.81,7.47-34.21,23.6-51.82Z"/><path fill="#8c000a" d="M365.49,260.87c5.54,4.03,16.75,20.44,18.44,27.47,3.19,13.29,6.46,27,9.46,40.37-.45-.33-1.03-.72-1.35-1.19-8.44-12.52-12.54-27.09-18.08-41.01-3.37-8.46-9.16-16.5-8.47-25.63Z"/></g></svg>