<?xml version="1.0" encoding="UTF-8"?>
<svg id="Layer_1" xmlns="http://www.w3.org/2000/svg" version="1.1" viewBox="0 0 900 1140">
  <!-- Generator: Adobe Illustrator 29.8.2, SVG Export Plug-In . SVG Version: 2.1.1 Build 3)  -->
  <g id="Obleaks">
    <path fill="#8c000a" d="M279.39,321.34c3.25,1.08,8.81,5.33,13.9,7.18-5.45,9.45-8.9,12.58-18.34,17.79-1.9.93-7.83,4.02-9.1,3.42-4.73-2.23-1.21-19.59-.65-22.32,2.49-1.49,10.99-4.72,14.18-6.07Z"/>
    <path fill="#8c000a" d="M149.23,321.24l14.16,5.9c1.33,4.95,3.7,19.12-.61,22.8-2.31,0-4.51-1.37-6.68-2.41-9.88-5.24-15.49-8.97-20.55-19.06,5.32-1.81,9.02-4.17,13.68-7.23Z"/>
    <path fill="#8c000a" d="M263.38,297.13c9.89-.65,16.75,5.76,25.53,11.21l-8.43,7.82c-4.43,3.94-8.32,5.21-13.93,6.37-2.79-6.95-6.65-18.27-3.18-25.4Z"/>
    <path fill="#8c000a" d="M160.94,296.59c3.01.17,5.56.97,5.85,4.39.58,6.89-2.48,15.2-4.37,21.74-4.83-1.02-7.33-1.91-11.46-4.45-3.81-3.19-7.5-6.65-11.17-10.02,6.88-3.61,14.1-9.73,21.16-11.66Z"/>
    <path fill="#8c000a" d="M126.88,290.73c14.31,4.67,21.36.83,35.86,1.15-2.99,1.49-5.99,3.05-8.97,4.57-6.15,3.99-10.9,7.53-17.91,9.79-10.46-2.71-8.86-5.58-8.97-15.52Z"/>
    <path fill="#8c000a" d="M301.43,290.74l.39.6c.64,9.36.75,12.4-8.85,14.94-6.74-2.13-9.87-4.59-15.71-8.51-4.16-2.6-6.6-3.63-11.14-5.33,15.17-.94,19.63,3.36,35.32-1.7Z"/>
    <path fill="#8c000a" d="M128.02,307.01c10.47,2.15,11.6,4.44,18.77,11.77-1.1,1.09-2.44,2.2-3.63,3.23-15.73,9.38-14.84-3.4-15.14-15Z"/>
    <path fill="#8c000a" d="M300.11,307.36l.61.94c-.29,11.48.19,21.46-14.75,14.12l-4.13-3.47c6.25-6.64,9.29-10.18,18.28-11.59Z"/>
    <path fill="#8c000a" d="M300.42,275.65l.37.13c1.83,2.06,1.23,8.57,1.2,11.73-8.73,3.84-12.09,3.46-21.41,3.04l-1.08-.1-.38-.68c9.55-5.03,12.71-7.45,21.3-14.11Z"/>
    <path fill="#8c000a" d="M127.63,274.94c4.99,3.51,9.69,7.96,15.27,11.13,1.78,1.01,5.93,2.92,6.87,4.25-8.49,1.36-15,.36-22.86-2.62-.33-4.72-.19-8.17.72-12.76Z"/>
    <path fill="#8c000a" d="M297.03,328.16c3.14,1.27.83,6.34-.23,8.57-.84,1.77-2.38,1.6-4.17,1.93-.9-.61-.59-.38-1.22-1.35,1.11-3.51,3.2-6.42,5.62-9.15Z"/>
    <path fill="#8c000a" d="M130.26,327.98c4,1.11,6.05,6.92,7.64,10.37-7.98-.27-7.06-3.39-7.64-10.37Z"/>
  </g>
</svg>