<svg id="Layer_1" xmlns="http://www.w3.org/2000/svg" version="1.1" viewBox="0 0 900 1140"><g id="Ass"><path fill="#8c000a" d="M720.2,453.68c12.95.95,27.74,9.85,36.7,18.86,5.26,5.39,9.8,11.44,13.5,17.99,11.92,20.66,7.63,29.22,6.93,52.38-.35,11.74-.54,23.38-.58,35.16-4.69-6.41-7.1-10.33-13.93-14.38-8.47-3.25-20.37-1.87-29.74-2.35-6.39-.35-12.71-1.55-18.79-3.57-8.09-2.66-18.16-7.46-21.86-15.32-2.81-8.4-3.13-41.83-.22-48.52,4.1-9.42,20.26-36.88,27.99-40.26Z"/><path fill="#8c000a" d="M654.81,453.7c.97-.02,2.02.05,2.94.58,8.12,4.69,24.04,33.76,27.24,41.81,1.73,10.98,1.48,29.51.77,40.04-1.2,17.72-27.88,24.6-42.02,25.33-8.39.44-18.07-1.02-26.48,1.13l-.75.2c-8.59,3.19-11.17,7.82-16.53,14.83-.31-11.58-.31-24.07-.78-35.32-.97-23.26-4.33-36.21,9.9-56.32,11.92-16.85,24.91-28.08,45.72-32.28Z"/><path fill="#8c000a" d="M608.39,432.97c15.88-1.88,35.58,5.44,46.36,17.23-17.65,4.79-27,9.81-39.82,23.27-7.14,8.16-12.29,17.67-17.66,27.04l-.6-.21c-.85-6.61,1.57-13.29,2.38-19.95,1.65-13.64.1-36.44,9.34-47.39Z"/><path fill="#8c000a" d="M780.53,502.9l-7.75-13.47c-12.47-21.21-27.05-32.99-50.79-39.36,8.94-9.71,35.25-22.25,46.46-16,8.09,4.57,8.86,45.5,10.51,55.2.88,5.22,1.34,8.36,1.57,13.62Z"/></g></svg>