<?xml version="1.0" encoding="UTF-8"?>
<svg id="Layer_1" data-name="Layer 1" xmlns="http://www.w3.org/2000/svg" viewBox="0 0 900 1140">
  <defs>
    <style>
      .cls-1 {
        fill: #ff9d00;
      }
    </style>
  </defs>
  <g id="abdominals">
    <path class="cls-1" d="M686.59,547.61c-2.72-3.79-4.55-6.96-5.77-11.58-2.57-12.26-6.08-24.23-11.05-37.6-6.51-14.83-9.83-30.69-10.78-51.47l.63-6.1,5.63-2.51,29.56,4.41c5.81,7.39,7.06,15.82,7.53,23.84.99,24.07-1.18,49.37-6.62,77.32l-2.85,4.28-6.29-.58Z"/>
    <path class="cls-1" d="M702.05,549c-.27,0-.54,0-.82-.02l5.55-45.43c1.9-14.88,2.46-30.39,1.75-48.82.18-4.77,1.13-8.61,2.98-12,6.93-3.42,12.75-4.95,18.85-4.95.81,0,1.64.03,2.46.09,2.96,20.39.41,41.88-7.8,65.68l-11.64,36.63c-.33.48-.65.97-.97,1.45-2.61,3.96-4.87,7.38-10.38,7.38Z"/>
    <path class="cls-1" d="M657.8,359.97c-4.1-1.72-4.82-5.45-5.65-9.75-.12-.63-.24-1.26-.37-1.88.26-8.96,1.67-18.42,4.42-29.75,1.73-4.1,5.01-6.84,9.51-7.92,9.28-2.07,17.33-5.85,24.6-11.55.03,0,.05,0,.08,0,2.59,0,4.36,1.5,6.1,5.18,1.68,8.03,2.42,16.81,2.34,27.61-.96,5.49-4.19,8.9-9.35,9.85l-.17.03-31.5,18.19Z"/>
    <path class="cls-1" d="M689.26,435.84c-.95,0-1.95-.14-2.98-.42l-.07-.02-18.07-1.97-.21.07c-.92.32-1.83.48-2.73.48-3.85,0-6.4-2.83-7.61-4.58-4.68-11.44-5.52-21.6-2.47-30.2.27,0,.55,0,.82,0,9.53,0,18.25-1.44,27.42-4.53,2.55-.5,4.68-.84,6.74-.84,3.25,0,5.74.87,7.79,2.73,2.32,8.86,2.55,18.9.75,31.57-1.11,2.92-3.78,7.69-9.36,7.69Z"/>
    <path class="cls-1" d="M660.81,393.86c-3.29,0-5.62-1.13-7.12-3.45-2.04-6.76-.43-14.36,4.92-23.23l28.06-17.2c.41-.12.81-.24,1.2-.36,1.93-.58,3.75-1.13,5.43-1.13s3.05.53,4.41,1.66c3.79,12.87,3.33,25.72-1.29,36.31-10.73.23-19.9,2.24-29.62,6.5-2.35.6-4.32.9-6.01.9Z"/>
    <path class="cls-1" d="M736.03,357.24c-1.72-.44-3.27-1-5.28-1.89-6.32-8.43-13.51-13.54-23.23-16.52-3.4-11.17-3.61-23.16-3.49-35.48l1.93-3.19,4.2-.15,23.74,15.62c4.04,12.23,5.59,24.47,4.71,37.39l-2.57,4.21Z"/>
    <path class="cls-1" d="M715.63,434.52c-1.56,0-3.06-.25-4.58-.77-1.75-2.09-3.35-4.95-5.03-8.95l-.32-28.32c1.22-2.16,2.88-3.52,5.34-4.39,8.84.65,15.84,3.54,21.39,8.83,2.32,8.11,2.74,16.58,1.21,24.51-.96,5.28-4.45,8.07-10.11,8.07-.43,0-.86-.02-1.31-.05h-.17s-.17.04-.17.04c-2.53.72-4.46,1.04-6.25,1.04Z"/>
    <path class="cls-1" d="M733.22,393c-7.69-3.34-13.76-5.98-21.14-5.98h-.34c-4.26-.24-5.52-4.14-5.88-6.5l.09-26.94,1.68-5.15,6.83-.2,19.82,16.77c1.91,8.46,4.17,18.85-.68,28.18l-.38-.16Z"/>
  </g>
</svg>