<svg id="Layer_1" xmlns="http://www.w3.org/2000/svg" version="1.1" viewBox="0 0 900 1140"><g id="Traps"><path fill="#8c000a" d="M696.83,100.72c1.83-.09,5.07-.59,6.65.47.99.66,4.39,27.72,12.95,37.25,17.93,19.96,47.9,25.16,68.62,41.71-11.16,4.56-29.77,9.69-39.53,16.08-8.59,8.05-5.52,28.77-5.97,38.68-1.03,22.67-2.54,40.08-14.14,59.97-8.19,13.38-18.73,25.19-26.36,38.93-3.06,5.5-5.69,11.23-8.37,16.92-.81-7.89-.45-23.35-.43-31.63l.1-54.48.05-93.72c-.03-8.2-1.08-62.73.76-67.15,1.73-1.83,3.29-2.15,5.67-3.04Z"/><path fill="#8c000a" d="M672.69,100.69c5.4-.34,13.29-.65,13.46,6.47.23,10.05.16,20.08.14,30.13l-.07,55.02-.23,158.39c-3.33-6.33-7.52-16.19-11.29-22-6.19-9.54-13.73-19.41-20.37-28.77-16.18-24.45-17.34-46.29-17.3-74.64,0-7.06.89-24.33-5.73-28.79-11.33-7.63-26.72-11.11-39.42-16.55,17.46-15.88,58.85-24.38,72.64-48,3.72-6.74,5.34-14.38,6.48-21.92.42-2.8.36-7.05,1.67-9.36Z"/></g><g><path fill="#8c000a" d="M251.31,152.03c4.06,2.77,8.96,8.51,12.86,10.75,11.78,6.78,23.13,14.23,34.66,21.35l-.04.61-2.82.9c-10.31,2.63-17.86,3.32-28.42,4.46-2.36-15.69-10.16-24.13-15.93-37.38l-.3-.7Z"/><path fill="#8c000a" d="M176.97,152.18l.44.4c-.98,2.82-4.38,8.53-6.03,11.41-5.42,9.46-7.72,15.58-10.1,26.18-9.55-1.14-17.17-2.32-26.56-4.28l-5.59-1.54c5.99-3.23,11.43-7.25,17.11-10.59,13.03-7.66,19.92-10.68,30.73-21.59Z"/><path fill="#8c000a" d="M197.18,192.19c-6.88-1.42-12.8-1.62-19.76-2.16,1.8-4.7,3.24-8.01,4.18-13.01,1.06-6.45.1-14.79.19-21.6l.51-.73c1.65,3.17,4.9,13.07,6.3,16.97,2.52,6.98,5.38,13.83,8.57,20.53Z"/><path fill="#8c000a" d="M246.73,153.72c.84,1.76-.16,16.68.36,20.61.96,7.2,1.68,8.98,4.2,15.78-5.38.3-10.21.52-15.57,1.27-2.11.31-1.8.6-3.36-.18,2.65-6.19,5.24-12.32,7.57-18.65,2.27-6.19,4.03-12.91,6.8-18.84Z"/><path fill="#8c000a" d="M180.26,172.38c-.1.54-.2,1.08-.31,1.61-1.39,6.26-10.68,10.8-16.31,14.41,1.41-5.7,11.31-30.51,15.34-33.01,1.7,4.9,1.33,11.69,1.28,16.99Z"/><path fill="#8c000a" d="M249.25,154.86c5.12,5.36,15.01,26.13,15.71,33.64-5.1-3.56-10.45-7.16-15.29-11.05-1.54-6.88-1.13-15.62-.42-22.59Z"/><path fill="#8c000a" d="M176.95,182.34l.35.32c.14,1.58-1.85,5.68-2.56,7.39l-8-.28-.53-.53c1.84-1.86,8.19-5.39,10.75-6.91Z"/><path fill="#8c000a" d="M250.97,182.2c3.64,1.59,8.97,5.23,12.16,7.66l-9.3.15c-1.2-2.65-1.95-5.07-2.86-7.82Z"/></g></svg>