<?xml version="1.0" encoding="UTF-8"?>
<svg id="Layer_1" xmlns="http://www.w3.org/2000/svg" version="1.1" viewBox="0 0 900 1140">
  <!-- Generator: Adobe Illustrator 29.8.2, SVG Export Plug-In . SVG Version: 2.1.1 Build 3)  -->
  <g id="abs">
    <path fill="#8c000a" d="M239.79,404.41c16.41-1.22,14.57-.68,14.33,14.69-.32,20.54-6.21,37.82-12.72,56.98-5.03,14.79-9.4,29.67-15.54,44.06-1.72,2.66-4.73,5.3-8.12,4.66-.72-.72-1.44-1.25-1.49-2.47-.38-10.38-.21-22.14-.2-32.43l.09-43.77c.02-8.42-1.19-28.27,3.21-35.86,2.75-4.75,14.7-5.35,20.42-5.85Z"/>
    <path fill="#8c000a" d="M175.94,404.23c9.09-.46,33.87-1.52,35.19,10.52,2.97,27.07.76,55.19,1.45,82.51.12,4.88.47,25.15-1.3,28.06-8.13-1.65-9.26-6.71-11.94-14.04-7.75-21.25-14.92-43.07-21.11-64.81-2.08-7.29-5.94-36.21-2.29-42.24Z"/>
    <path fill="#8c000a" d="M203.61,282.39c9.56-1.24,6.83,10.17,7.35,16.37,1.58,18.96-3.41,20.98-19.48,27.38-3.69,1.47-11.6,6.35-15.5,8.72-1.79.79-1.84.94-3.86.95-7.93-4.01.73-36.17,2.83-43.83,5.53-3.53,21.91-7.77,28.66-9.59Z"/>
    <path fill="#8c000a" d="M221.69,282.16c4.61.18,28.8,6.5,31.02,9.66,4.51,6.42,10.73,38.2,4.26,44.83-2.85-.96-35.37-18.33-36.84-19.73-1.88-1.8-2.1-4.99-2.2-7.44-.24-5.84-.73-18.14,1.04-23.54.49-1.48,1.67-2.65,2.71-3.76Z"/>
    <path fill="#8c000a" d="M222.05,362.15c5.35-.42,32.43,1.84,34.86,8.25,1.98,5.2-.9,19.34-2.48,24.93-.66,2.32-1.45,3.01-3.54,4.02-6.76,1.09-17.64,2.19-24.3,2.32-11.36.22-10.11-21.58-9.53-28.97.42-5.32,1.09-7.35,4.99-10.54Z"/>
    <path fill="#8c000a" d="M198.88,362.4c1.2-.13,4.18-.48,5.27-.34,11.1,1.36,7.31,19.66,7.42,27.2.05,3.38-3.05,10.13-5.56,11.52-3.95,2.18-15.17-.08-19.8-.64-11.01-.6-11.13.19-13.29-10.68-5.24-26.43,3.41-24.3,25.96-27.06Z"/>
    <path fill="#8c000a" d="M205.79,324.27c1.49-.22,1.49-.09,2.95.37,1.62,1.52,2.07,2.74,2.49,4.91,1.02,5.28,1.83,22.66-2.15,26.72-1.6,1.63-27.99,4.9-32.36,5.68-7.59-1.07-7.34-11.39-4.71-16.2,6.03-11.02,22.49-17.16,33.77-21.48Z"/>
    <path fill="#8c000a" d="M220.51,323.54c12.55,2.82,30.99,12.49,37.75,24.03.18,6.15.74,9.48-3.56,14.08-2.99.46-32.64-3.82-35.59-6.17-2.88-2.3-3.14-26.86,1.39-31.94Z"/>
  </g>
</svg>