<?xml version="1.0" encoding="UTF-8"?>
<svg id="Layer_1" xmlns="http://www.w3.org/2000/svg" version="1.1" viewBox="0 0 900 1140">
  <!-- Generator: Adobe Illustrator 29.8.2, SVG Export Plug-In . SVG Version: 2.1.1 Build 3)  -->
  <g id="Abductors">
    <path fill="#8c000a" d="M783.02,504.39c1.55,1.51,8.41,23.87,9.78,27.74,14.52,40.82,21.84,84.5,15.68,127.69-1.37,9.6-4.6,20.34-7.31,29.68l-1.04,2.64-.44-.05c-1.1-7.71,1.4-25.35,2.12-33.78,3.09-35.83,1.12-70.76-12.5-104.42-1.73-4.27-7.5-15.3-7.9-18.72-.98-8.24-.25-22.74,1.6-30.77Z"/>
    <path fill="#8c000a" d="M592.92,504.94c3.21,3.3,2.76,25.12,2.96,30.94-21.92,40.94-25.58,82.75-20.53,128.13.47,4.19,2.7,26,1.82,28.68l-.94-1.35c-1.35-4.42-2.64-8.93-3.88-13.37-13.07-46.83-4.87-98.41,10.83-143.6,3.32-9.55,7.02-19.61,9.75-29.43Z"/>
  </g>
  <g id="Abductors1" data-name="Abductors">
    <path fill="#8c000a" d="M132.27,432.92c2.66,2.45,8.19,10.36,13.44,15.34,7.1,51.02-9.96,54.7-37.65,92.84-3.09,4.39-4.82,7.39-7.4,12.04,4.67-20.4,15.52-41.21,20.35-61.85,2.48-10.59,3.11-20.24,4.44-30.92,1.14-9.1,4.07-18.72,6.82-27.46Z"/>
    <path fill="#8c000a" d="M296.75,432.92c-2.66,2.45-8.19,10.36-13.44,15.34-7.1,51.02,9.96,54.7,37.65,92.84,3.09,4.39,4.82,7.39,7.4,12.04-4.67-20.4-15.52-41.21-20.35-61.85-2.48-10.59-3.11-20.24-4.44-30.92-1.14-9.1-4.07-18.72-6.82-27.46Z"/>
  </g>
</svg>