<svg id="Layer_1" xmlns="http://www.w3.org/2000/svg" version="1.1" viewBox="0 0 900 1140"><g id="lats"><path fill="#8c000a" d="M581.92,277.09c19.3,8.99,37.65,9.34,57.91,2.61,9.63,22.94,22.28,33.61,33.59,53-.63,16.24-5.43,32.04-13.93,45.88-3.41,5.51-8.35,12.38-10.75,18.11l-.32.77c-4.31,14.63-4.09,16.66-12.73,29.97-4.77-27.97-24.7-57.6-37.6-83.16-13.46-26.67-17.71-36.65-16.18-67.19Z"/><path fill="#8c000a" d="M793.16,277.94c1.08-.09.55-.22,1.53.59.97,9.04.68,21.08-1.57,29.95-10.09,39.84-46.25,79.22-52.27,119.43-7.17-11.65-8.83-15.24-11.92-28.43-2.41-6.71-7.25-13.42-11.03-19.57-9.92-16.14-13.05-28.58-14.62-46.9,2.78-5.61,10.06-15.32,13.93-20.55,8.42-11.38,13.86-19.92,19.6-32.9,19.21,7.28,37.67,5.93,56.34-1.62Z"/></g><g id="Lats"><path fill="#8c000a" d="M308.31,264.46c1.61,2.31,6.74,30.6,7.08,34.81.89,11.15-8.86,30.97-13.48,41.24-1.08,2.3-2.56,4.5-3.91,6.66,5.7-22.31,6.79-53.11,6.35-76.26l3.96-6.45Z"/><path fill="#8c000a" d="M119.58,264.33c2.04,1.64,3.64,4.64,5.09,6.95-1.57,20.88.43,42.26,3.62,62.92.59,3.82,1.41,7.7,1.76,11.54l-1.64-1.93c-19.28-39.47-16.09-38.2-8.83-79.47Z"/></g></svg>