<svg id="Layer_1" xmlns="http://www.w3.org/2000/svg" version="1.1" viewBox="0 0 900 1140"><g id="tibialis"><path fill="#8c000a" d="M105.82,750.64c1.36,1.37,2.13,10.52,2.42,12.88,2.58,21.01,3.99,42.14,4.24,63.3.3,15.96-.01,32.61.65,48.48.68,16.41,2.4,34.06,3.91,50.47-3.78-.49-6.85.1-8.14-3.63-3.24-16.12-6.04-34.43-9.2-50.3-9.84-49.44-9.66-73.52,6.13-121.21Z"/><path fill="#8c000a" d="M324.49,750.64c-1.36,1.37-2.13,10.52-2.42,12.88-2.58,21.01-3.99,42.14-4.24,63.3-.3,15.96.01,32.61-.65,48.48-.68,16.41-2.4,34.06-3.91,50.47,3.78-.49,6.85.1,8.14-3.63,3.24-16.12,6.04-34.43,9.2-50.3,9.84-49.44,9.66-73.52-6.13-121.21Z"/></g></svg>