<svg id="Layer_1" xmlns="http://www.w3.org/2000/svg" version="1.1" viewBox="0 0 900 1140"><g id="quad"><path fill="#8c000a" d="M157.75,572.97c-1.23,17.4-5.86,39.2-12.42,55.53-7.4,18.47-15.25,34.8-17.05,51.89-4.52,7.43-9.96,9.89-13.3,10.69.08-1.07.08-2.18.04-3.3-.5-9.93-6.48-23.15-9.08-33.26-5.82-22.23-4.25-48.71-.23-71.39,3.41-19.28,12.22-43.99,21.11-61.51,1.19-2.34,7.47-9.2,9.47-11.88,6.86-9.39,10.42-17.9,14.26-28.59,4.29,20.88.96,48.48,4.79,70.13.31,6.63,2.72,15.1,2.41,21.69Z"/><path fill="#8c000a" d="M159.61,583.19c3.83,7.07,9.12,62.54,9.39,72.85.43,16.85-.37,41.04-12.81,54.64-4.67,5.11-10.07,5.85-16.35,5.89-5.93-3.22-6.78-11.45-8.03-17.46-5.75-27.52,9.99-50.8,18.37-75.67,4.34-12.89,6.97-26.83,9.44-40.25Z"/><path fill="#8c000a" d="M117.21,533.58l.6.8c-.64,2.61-1.46,4.54-2.49,7.02-13.72,32.87-19.11,72.09-13.48,107.3,3.14,19.66,14.96,31.96,8.08,52.78-.89-1.35-1.94-3.27-2.79-4.71-8.81-15.91-14.66-33.29-17.27-51.29-3.36-21.96-.3-60.3,7.93-81.45,3.23-8.3,14.13-23.23,19.42-30.45Z"/><path fill="#8c000a" d="M323.08,654.52c-2.61,10.12-8.58,23.34-9.08,33.26-.04,1.11-.04,2.22.04,3.3-3.33-.8-8.78-3.26-13.3-10.69-1.8-17.09-9.66-33.42-17.05-51.89-6.55-16.32-11.19-38.13-12.42-55.53-.31-6.59,2.11-15.06,2.41-21.69,3.83-21.65.5-49.24,4.79-70.13,3.83,10.69,7.4,19.2,14.26,28.59,1.99,2.68,8.28,9.54,9.47,11.88,8.89,17.51,17.7,42.23,21.11,61.51,4.02,22.69,5.59,49.17-.23,71.39Z"/><path fill="#8c000a" d="M269.41,583.19c-3.83,7.07-9.12,62.54-9.39,72.85-.43,16.85.37,41.04,12.81,54.64,4.67,5.11,10.07,5.85,16.35,5.89,5.93-3.22,6.78-11.45,8.03-17.46,5.75-27.52-9.99-50.8-18.37-75.67-4.34-12.89-6.97-26.83-9.44-40.25Z"/><path fill="#8c000a" d="M311.8,533.58l-.6.8c.64,2.61,1.46,4.54,2.49,7.02,13.72,32.87,19.11,72.09,13.48,107.3-3.14,19.66-14.96,31.96-8.08,52.78.89-1.35,1.94-3.27,2.79-4.71,8.81-15.91,14.66-33.29,17.27-51.29,3.36-21.96.3-60.3-7.93-81.45-3.23-8.3-14.13-23.23-19.42-30.45Z"/></g></svg>