<svg id="Layer_1" xmlns="http://www.w3.org/2000/svg" version="1.1" viewBox="0 0 900 1140"><g id="up_back"><path fill="#8c000a" d="M745.29,203.26c20.03,3.39,36.74,7.45,53.95,19.09-22.4,2.55-25.72,13.57-30.79,33.22-3.14,11.73-5.37,18.76-18.16,22.1-4.29,1.12-7.89,2.41-11.72-.61-.14-.81,1.86-18.9,2.24-21.22,2.34-14.51-1-39.76,4.47-52.58Z"/><path fill="#8c000a" d="M628.32,204.03c2.22-.24,1.68-.5,3.42.34,3.73,7.09,2.52,44.02,4.01,54.54,1.02,7.26.84,9.87,3.09,18.19-1.84.79-4.51,1.55-6.48,2.18-13.49-2.99-18.64-6.17-23.01-19.42-5.19-21.16-6.85-33.94-31.02-37.78,14.72-10.55,32.25-15.55,49.99-18.05Z"/><path fill="#8c000a" d="M576.32,226.5c31.9-2.94,23.16,29.35,36.72,46.41,3.19,4.01,7.19,5.61,11.77,7.62-5.76.57-11.21,1.12-17,.76-44.9-2.67-18.8-28.97-32.15-41.51-4.58-4.31-11.61-4.53-17.51-4.42,6.87-5.44,9.59-7.27,18.16-8.87Z"/><path fill="#8c000a" d="M792.74,226.46c11.44-.93,16.95,2.18,25.71,8.73-4.82-.05-6.26-.09-10.86,1.18-16.85,4.65-7.71,24.34-12.78,35.61-1.95,4.34-12.76,6.96-17.52,8.18-9.76,2.03-15.85,1.44-25.48.25,30.95-12.16,9.51-44.95,40.93-53.96Z"/></g></svg>