<svg id="Layer_1" xmlns="http://www.w3.org/2000/svg" version="1.1" viewBox="0 0 900 1140"><g id="tibialis"><path fill="#8c000a" d="M105.82,750.64c1.36,1.37,2.13,10.52,2.42,12.88,2.58,21.01,3.99,42.14,4.24,63.3.3,15.96-.01,32.61.65,48.48.68,16.41,2.4,34.06,3.91,50.47-3.78-.49-6.85.1-8.14-3.63-3.24-16.12-6.04-34.43-9.2-50.3-9.84-49.44-9.66-73.52,6.13-121.21Z"/><path fill="#8c000a" d="M324.49,750.64c-1.36,1.37-2.13,10.52-2.42,12.88-2.58,21.01-3.99,42.14-4.24,63.3-.3,15.96.01,32.61-.65,48.48-.68,16.41-2.4,34.06-3.91,50.47,3.78-.49,6.85.1,8.14-3.63,3.24-16.12,6.04-34.43,9.2-50.3,9.84-49.44,9.66-73.52-6.13-121.21Z"/></g><g><g id="calvs"><path fill="#8c000a" d="M592.77,717.41c4.9,5.14,9.51,16.47,9.63,23.6.45,26.27-6.11,52.57-8.03,78.75-.85,11.65-1.23,26.57-13.05,32.4-5.12,2.52-7.71,1.99-12.77.2-.5-.31-1-.63-1.49-.95-8.19-5.42-11.88-28.35-10.88-37.61,2.69-24.69,12.01-49.98,21.69-72.76,2.77-6.51,10.71-17.36,14.89-23.64Z"/><path fill="#8c000a" d="M783.76,717.57c2.33,2.12,13.79,20.02,14.84,22.77,10.86,28.36,27.1,62.22,20.19,93.15-1.59,7.11-2.58,13.29-8.77,17.86-3.57,1.9-5.02,2.11-8.92,2.95-5.59-1.72-13.35-6.86-15.15-12.73-3.17-10.38-2.98-22.03-4.41-32.81-1.88-14.19-3.74-28.39-5.61-42.58-2.23-18.42-4.28-33.1,7.83-48.62Z"/><path fill="#8c000a" d="M615.17,726.93c2.52,4.49,2.85,16.18,4.8,20.09,6.65,13.25,7.17,23.52,9.6,37.71,5.77,33.74,2.37,62.86-16.61,92.23-9.85.54-16.4-32.38-16.44-39.85-.12-25.14,4.97-50.12,7.68-75.05,2.09-19.23-2.28-20.3,10.96-35.13Z"/><path fill="#8c000a" d="M761.2,727.37c3.25,1.67,9.02,9.61,9.61,13.29,1.08,6.85,1.17,13.96,1.87,20.86,2.17,21.15,5.96,42.41,7.53,63.59,1.14,15.34-1.83,42.64-15.53,52.34-.71-.79-1.39-1.59-1.94-2.48-18.25-29.4-20.94-56.43-15.44-89.92,1.49-4.96,1.64-19.29,3.67-23.56,5.64-11.86,7.47-21.43,10.24-34.13Z"/></g><g id="Calvs"><path fill="#8c000a" d="M127.86,836.8c3.77,3.74,10.42,24.05,12.01,30.2-3.7,11.99-7.1,24.08-10.22,36.24-.9,3.48-1.66,5.86-2.87,9.25-.81-21.8.04-54.13,1.08-75.68Z"/><g><path fill="#8c000a" d="M153.23,759.95c2.38,2.24,2.7,14.45,3.18,18.1,4.49,33.87-1.15,53.88-14.31,84.94-.84-1.95-1.7-4.35-2.48-6.36-6.46-18.59-13.54-24.94-9.94-45.22,3.92-22.05,12-33.34,23.55-51.45Z"/><path fill="#8c000a" d="M105.25,923.76l-1.26.19-11.65.27c-.46-4.52-.5-11.11-.8-15.94-.57-8.05-1.38-16.09-2.38-24.1-.84-7.28-1.72-14.33-2.57-21.19h8.74c1.84,10.73,3.95,21.46,5.94,32.15,1.42,7.78,5.06,25.37,3.99,28.63Z"/><path fill="#8c000a" d="M97.28,769.63c-10.16,31.15-7.28,62.27-1.95,93.35h-8.74c-3.95-32.34-6.48-60.93,4.6-94.38,2.64-8.01,4.6-15.48,7.93-23.49,2.03,1.34,2.41,1.46,3.76,3.41-.08,2.22-4.45,17.59-5.59,21.11Z"/><path fill="#8c000a" d="M277.08,759.95c-2.38,2.24-2.7,14.45-3.18,18.1-4.49,33.87,1.15,53.88,14.31,84.94.84-1.95,1.7-4.35,2.48-6.36,6.46-18.59,13.54-24.94,9.94-45.22-3.92-22.05-12-33.34-23.55-51.45Z"/><path fill="#8c000a" d="M343.73,862.98c-.84,6.86-1.72,13.91-2.57,21.19-1,8.01-1.8,16.06-2.38,24.1-.31,4.83-.34,11.42-.84,15.94l-11.61-.27-1.26-.19c-1.07-3.26,2.57-20.85,3.99-28.63,1.99-10.69,4.1-21.42,5.94-32.15h8.74Z"/><path fill="#8c000a" d="M343.73,862.98h-8.74c5.29-31.08,8.2-62.19-1.95-93.35-1.15-3.53-5.52-18.89-5.59-21.11,1.3-1.95,1.72-2.07,3.76-3.41,3.33,8.01,5.29,15.48,7.93,23.49,11.07,33.45,8.55,62.04,4.6,94.38Z"/></g><path fill="#8c000a" d="M302.45,836.8c-3.77,3.74-10.42,24.05-12.01,30.2,3.7,11.99,7.1,24.08,10.22,36.24.9,3.48,1.66,5.86,2.87,9.25.81-21.8-.04-54.13-1.08-75.68Z"/></g></g></svg>