<svg id="Layer_1" xmlns="http://www.w3.org/2000/svg" version="1.1" viewBox="0 0 900 1140"><g id="Side_Sh"><path fill="#8c000a" d="M116.58,187.81c1.23-.15,2.27-.12,3.51-.12.09,1-2.79,2.06-4.04,2.64-10.25,4.78-18.17,9.66-25.19,18.65-16.68,21.33-12.79,42.67-9.91,67.14-2.16,3.46-5.5,7.31-8.13,10.53-2.23-3.86-4.32-12.41-5.36-16.89-4.82-20.66-.51-41.24,10.93-59,8.55-13.29,23.02-19.87,38.2-22.94Z"/><path fill="#8c000a" d="M307.46,187.72c16.49-1.27,37.27,12.2,45.15,26.64,13.43,24.62,12.69,42.62,5.11,68.72-.44,1.26-.47,1.24-1.26,2.34l-1.31-.2c-3.15-2.35-5.36-6.27-7.25-9.7.31-4.43,1.29-10.03,1.76-14.6,3.98-38.43-8.14-57.4-42.2-73.2Z"/></g></svg>