<?xml version="1.0" encoding="UTF-8"?>
<svg id="Layer_1" data-name="Layer 1" xmlns="http://www.w3.org/2000/svg" viewBox="0 0 900 1140">
  <defs>
    <style>
      .cls-1 {
        fill: #ff0080;
      }
    </style>
  </defs>
  <g id="up_lats" data-name="up lats">
    <path class="cls-1" d="M227.95,309.22c-8.25,14.11-38.64,61.95-72.52,63.95-4.18-9.3-7.27-18.26-9.49-27.46,8.32-16.77,13.06-32.17,15.29-49.69,15.2,6.99,29.51,10.39,43.69,10.39,5.08,0,10.21-.45,15.24-1.35,2.68.23,5.14.68,6.86,1.25.31.99.62,1.96.93,2.91Z"/>
    <path class="cls-1" d="M356.31,306.81c-4.2,20.86-12.55,40.98-24.82,59.81l-.03.05-7.13,14.59c-14.87-9.23-14.07-48.49-13.23-63.12,1.21-2.04,2.32-4.14,3.33-6.3l1.82-4.28,5.68-.03c5.81,2.63,11.63,3.97,17.31,3.97,4.34,0,8.5-.8,12.38-2.38l.2-.08.14-.15c1.43-1.46,2.61-2.12,3.84-2.12.17,0,.34.01.51.04Z"/>
    <path class="cls-1" d="M574.22,273.62l-8.22-6.28c-2.17,22.52-6.52,43.06-13.38,61.29,0,0,25.72,60.35,23.31,55.93-2.67-4.89-6.74-74.67-1.72-110.94Z"/>
  </g>
</svg>