<?xml version="1.0" encoding="UTF-8"?>
<svg id="Layer_1" xmlns="http://www.w3.org/2000/svg" version="1.1" viewBox="0 0 900 1140">
  <!-- Generator: Adobe Illustrator 29.8.2, SVG Export Plug-In . SVG Version: 2.1.1 Build 3)  -->
  <g id="Chest">
    <path fill="#8c000a" d="M153.5,194.33c10.03-.21,34.16,1.57,43.29,5.86,5.25,2.46,11.55,12.72,12.64,18.34,1.57,8.06,1.91,36.46.58,43.9-.58,3.35-1.81,6.55-3.62,9.43-6.04,9.49-24.87,11.8-35.85,14-6.58,1.2-14.04,2.62-20.44.2-14.54-5.49-26.03-18.58-32.6-32.35-3.6-7.54-3.37-12.01-.73-19.63,6.53-18.87,18.58-31.32,36.73-39.74Z"/>
    <path fill="#8c000a" d="M273.66,194.46c6.2-.43,22.36,13.08,26.45,17.86,5.15,6.03,15.15,24.68,13.82,32.68-1.89,11.4-12.71,26.62-22.14,33.51-12.45,8.94-16.35,9.83-30.73,7.88-40.79-7.4-42.68-8.43-43.01-47-.38-45.07,18.08-43.3,55.6-44.94Z"/>
  </g>
</svg>