<svg id="Layer_1" xmlns="http://www.w3.org/2000/svg" version="1.1" viewBox="0 0 900 1140"><g id="Adductors"><path fill="#8c000a" d="M673.11,578.23l.9.37c.32,2.78.18,9.08,1.17,10.7-1.17,12.39-4,27.25-7.18,39.3-4.16,15.76-11.41,31.83-16.17,47.45-5.93,19.46-10.14,39.67-15.49,59.29-1.13,4.14-3.78,12.85-5.93,16.14,3.68-23.72,8.52-51.5,15.43-74.19,8.34-27.38,24.97-51.58,27.43-81.24.45-5.47.06-12.26-.16-17.82Z"/><path fill="#8c000a" d="M702.83,600.84l1.23.3c3.89,28.76,18.47,49.54,26.94,76.71,7.67,24.63,10.36,49.77,15.38,74.87-9.42-19.28-13.05-50.03-19.92-71.01-4.56-13.92-9.67-27.37-14.26-41.12-4.25-12.96-7.39-26.26-9.37-39.75Z"/><path fill="#8c000a" d="M695.53,551.58l11.71,7c-3.84,14.2-5.2,27.95-3.18,42.56l-1.23-.3c-2.25-14.22-3.18-37.29-7.29-49.26Z"/><path fill="#8c000a" d="M669.43,558.56c4.32-2.36,7.17-4.17,11.25-6.93-4.15,14.52-3.21,23.54-5.51,37.66-.99-1.63-.86-7.92-1.17-10.7l-.9-.37c-1.08-6.68-2.03-13.09-3.67-19.66Z"/></g><g id="Adductors1" data-name="Adductors"><path fill="#8c000a" d="M177.64,624.17c-.08,19.31.15,39.66-3.33,58.98-1.65,2.15-3.33,3.72-4.94,4.91,3.3-15.63,2.61-31.92,1.34-47.75-2.22-28.36-8.01-56.22-12.15-84.31-3.41-23.07-2.76-46.41-4.41-69.63-.84-12.07-4.68-23.38-5.56-35.45,8.93,8.24,10.35,14.87,13.68,26.02,3.03,13.99,3.91,24.45,5.14,38.9,2.38,36.56,10.16,71.55,10.23,108.33Z"/><path fill="#8c000a" d="M194.87,525.23c4.23,3.82,5.35,7.31,11.87,12.37-2.22,7.49-2.72,18.25-3.51,26.27-1.01,9.95-2.21,19.89-3.58,29.8-2.66,18.82-10.1,39.15-16.56,56.97-1.19,3.12-2.22,5.48-3.64,8.51.27-8.67.24-20.48,1.66-28.8.61-3.56,3.98-12.84,5.23-16.85,2.68-8.47,4.57-17.16,5.66-25.98,2.03-16.05,2.24-32.25,2.31-48.4.02-4.64,0-9.29.55-13.9Z"/><path fill="#8c000a" d="M191.6,522.2c1.09,2.56.5,14.33.45,17.72-.31,22.75-.66,45.89-6.95,67.93-1.17,4.11-2.32,9.18-4.29,12.9l-.47-.32-.16-3.18c-.33-11.96-1.24-23.91-2.71-35.78-1.12-8.83-3.19-21.42-3.47-30.02,3.93-7.71,12.73-21.71,17.59-29.24Z"/><path fill="#8c000a" d="M183.94,503.99c1.8,1.99,5.36,9.22,6.77,11.95-3.8,9.7-9.31,18.25-15.36,26.67-.85,1.18-.77,1.35-2.1,1.78-2.04-3.3-2.06-15.04-2.28-19.49l12.97-20.92Z"/><path fill="#8c000a" d="M182.02,500.48c-3.39,6.37-6.82,12.68-10.97,18.6l-.68.06c-.22-1.49-.42-2.97-.6-4.47-1.32-16.81-2.4-26.28-5.98-42.59l-.63-2.81.53-.35c4.43,3.97,15.73,25.53,18.33,31.56Z"/><path fill="#8c000a" d="M251.37,624.17c.08,19.31-.15,39.66,3.33,58.98,1.65,2.15,3.33,3.72,4.94,4.91-3.3-15.63-2.61-31.92-1.34-47.75,2.22-28.36,8.01-56.22,12.15-84.31,3.41-23.07,2.76-46.41,4.41-69.63.84-12.07,4.68-23.38,5.56-35.45-8.93,8.24-10.35,14.87-13.68,26.02-3.03,13.99-3.91,24.45-5.14,38.9-2.38,36.56-10.16,71.55-10.23,108.33Z"/><path fill="#8c000a" d="M234.14,525.23c-4.23,3.82-5.35,7.31-11.87,12.37,2.22,7.49,2.72,18.25,3.51,26.27,1.01,9.95,2.21,19.89,3.58,29.8,2.66,18.82,10.1,39.15,16.56,56.97,1.19,3.12,2.22,5.48,3.64,8.51-.27-8.67-.24-20.48-1.66-28.8-.61-3.56-3.98-12.84-5.23-16.85-2.68-8.47-4.57-17.16-5.66-25.98-2.03-16.05-2.24-32.25-2.31-48.4-.02-4.64,0-9.29-.55-13.9Z"/><path fill="#8c000a" d="M237.41,522.2c-1.09,2.56-.5,14.33-.45,17.72.31,22.75.66,45.89,6.95,67.93,1.17,4.11,2.32,9.18,4.29,12.9l.47-.32.16-3.18c.33-11.96,1.24-23.91,2.71-35.78,1.12-8.83,3.19-21.42,3.47-30.02-3.93-7.71-12.73-21.71-17.59-29.24Z"/><path fill="#8c000a" d="M245.08,503.99c-1.8,1.99-5.36,9.22-6.77,11.95,3.8,9.7,9.31,18.25,15.36,26.67.85,1.18.77,1.35,2.1,1.78,2.04-3.3,2.06-15.04,2.28-19.49l-12.97-20.92Z"/><path fill="#8c000a" d="M246.99,500.48c3.39,6.37,6.82,12.68,10.97,18.6l.68.06c.22-1.49.42-2.97.6-4.47,1.32-16.81,2.4-26.28,5.98-42.59l.63-2.81-.53-.35c-4.43,3.97-15.73,25.53-18.33,31.56Z"/></g></svg>