<svg id="Layer_1" xmlns="http://www.w3.org/2000/svg" version="1.1" viewBox="0 0 900 1140"><g id="Ham_string"><path fill="#8c000a" d="M761.44,707.01c-2.23,16.41-4.69,31.12-9.78,46.85-1.02-4.7,1.47-31.04.62-40.32-1.95-21.34-7.05-38.9-10.56-59.82-1.4-8.26-2.63-16.54-3.68-24.85-.55-4.38-1.15-12.29-2.08-16.31-.69-19.29,1.6-28.6,4.56-47.43,6.21,8.04,9.3,16.19,12.49,25.77,12.61,37.85,13.75,76.86,8.42,116.12Z"/><path fill="#8c000a" d="M749.75,734.25c-.2,3.17-.57,10.97-1.27,13.75-1.7-4.98-5.4-29.07-6.71-35.85-1.49-7.82-3.22-15.59-5.15-23.31-1.96-7.61-5.16-18.09-5.86-25.78-.88-9.63-.23-21.97.32-31.7.21-3.73.96-14.15,1.99-17.3.83,1.36,1.27,5.79,1.54,7.61,2.23,38.82,17.57,74.27,15.14,112.57Z"/><path fill="#8c000a" d="M747.54,564.72c2.86,0,5,.03,7.84.32,6.44.66,11.12,4.47,14.78,9.61,5.26,7.39,9.33,17.87,12.23,26.57,5.18,15.54,10.02,33.77,11.65,50.11,1.84,18.39,2.09,37.56,3.47,56.09.38,5.09,3.83,26.88,3.49,29.03l-.94-.51c-14.15-18.91-30.7-47.72-32.24-71.58-1.88-29.14-4.77-56.57-15.77-84.01-1.09-2.71-6.27-13.11-6.29-14.97l1.78-.67Z"/><path fill="#8c000a" d="M624.72,564.74c2.12-.13,4.59.04,6.75.12-11.74,24.07-18.92,50.1-21.18,76.79-1.2,12.75-1.03,25.54-4.4,37.94-5.34,19.66-15.22,35.82-26.32,52.51-1.39,1.94-2.96,3.82-4.47,5.68,5.88-32.18,4.37-57.71,8.01-88.64,2.33-18.73,6.93-37.11,13.71-54.73,5.58-14.16,10.67-28.46,27.91-29.66Z"/><path fill="#8c000a" d="M635.35,566.07c2.05,1.7,1.99,9.13,2.71,12.05,5.98,24.67.9,50.87-3.12,75.36-4.61,28.11-13.33,53.86-10.41,82.76.4,3.92,1.15,11.79.75,15.58l-.54-.03-1.14-2.33c-13.4-48.71-16.41-107.65-.83-156.18,2.96-9.22,6.2-19.77,12.57-27.21Z"/><path fill="#8c000a" d="M710.26,559.56c8.44,3.57,18.39,4.72,27.42,5.79-1.34,10.54-3.89,21.91-5.5,32.6-2.66,18.15-4.16,36.46-4.49,54.8-.02,1.86.29,5.29-.52,6.57-3.02-6.34-5.37-13.1-8.24-19.25-12.13-26.05-17.75-52.2-8.67-80.52Z"/><path fill="#8c000a" d="M665.89,559.85c.81.69,1.31,1.85,1.58,2.84,8.38,30.07-.32,58.57-13.56,85.62-1.69,3.46-2.85,7.01-4.6,10.51l-.53-.11.03-2.11c-.05-13.58-.46-24.63-1.83-38.04-1.86-18.05-5.69-35.43-7.98-53.24,10.25-.58,17.36-2.41,26.9-5.48Z"/><path fill="#8c000a" d="M780.28,542.28c2.82,2.9,6.4,12.88,8.08,16.95,14.59,35.27,12.83,71.2,10.26,108.31l-.73.48c-.69-1.84-1.47-16.07-1.82-19.51-.61-5.79-1.52-11.54-2.71-17.23-2.01-9.39-4.47-18.68-7.39-27.82-1.31-4.03-5.7-15.12-5.88-18.29-.73-13.01-.6-29.96.18-42.89Z"/><path fill="#8c000a" d="M595.59,542.36l.77,1.07c.59,7.28,1.34,38.08-.35,43.8-4.69,15.84-10.03,29.41-13.02,46.28-1.04,5.8-1.82,11.64-2.34,17.5-.37,4.32-.81,13.43-1.84,16.93-1.13-3.62-1.7-16.45-2.07-20.69-3.11-35.77,2.7-72.48,18.86-104.89Z"/><path fill="#8c000a" d="M642.98,613.57c2.96,6.33,4.16,45.76,2.46,54.19-1.39,6.85-5.78,21.2-7.6,29.08-3.84,16.58-6.06,33-9.27,49.67-.19.59-.03.23-.66.96-.9-3.09-.77-8.95-1.04-12.31-2.15-26.5,4.84-49.68,9.6-75.42,2.86-15.46,4.71-30.42,6.51-46.16Z"/></g></svg>