<?xml version="1.0" encoding="UTF-8"?>
<svg id="female" xmlns="http://www.w3.org/2000/svg" version="1.1" viewBox="0 0 900 1140">
  <!-- Generator: Adobe Illustrator 29.8.2, SVG Export Plug-In . SVG Version: 2.1.1 Build 3)  -->
  <g id="Nick">
    <path fill="#8c000a" d="M724.41,151.85c-2.14-11.95-3.98-24.16-5.82-36.15-.52-3.37-6.4-5.74-9.32-6.71.74,13.89,3.75,30.83,14.03,42.06.35.38.67.54,1.11.8Z"/>
    <path fill="#8c000a" d="M666.04,151.27c8.37-10.24,14.22-26.38,14.36-40.1.01-1.01-.11-.88-.87-1.66l-.63-.14c-11.09,4.41-9.14,14.9-10.7,25.4-.82,5.38-1.84,10.72-3.05,16.02l.48.61.42-.14Z"/>
    <path fill="#8c000a" d="M226.63,142.85c-10.68,4.97-15.75,5.67-26.99,1.59-1.17-.42-2.34-.85-3.5-1.3,1.66,6.65,12.54,53.47,14.63,55.42l1.03-.07c1.91-2.97,3.23-10.08,4.05-13.69,2.9-12.26,7.01-30.2,10.78-41.95Z"/>
    <path fill="#8c000a" d="M206.12,195.18c-3.98-18.43-8.58-36.71-13.81-54.82-1.79-1.71-7.98-7.82-9.62-8.97,1.53,17.82,10.24,42.98,15.7,60.22l7.73,3.57Z"/>
    <path fill="#8c000a" d="M216.61,194.84l7.29-3.23c2.65-8.23,17.57-53.97,15.21-60.29-1.38,1.48-8.45,8.56-8.73,9.27-2.25,5.53-14.68,50.83-13.77,54.25Z"/>
  </g>
</svg>