<?xml version="1.0" encoding="UTF-8"?>
<svg id="female" xmlns="http://www.w3.org/2000/svg" version="1.1" viewBox="0 0 900 1140">
  <!-- Generator: Adobe Illustrator 29.8.2, SVG Export Plug-In . SVG Version: 2.1.1 Build 3)  -->
  <g id="Obliques">
    <path fill="#8c000a" d="M758.09,429.76c8.23,1.15,14.63,1.9,22.17,5.84,4.38,2.28,6.68,3.86,10.75,6.72-4.13-8.83-9.15-19.44-14.1-27.81-6-10.16-11.21-13.62-15.6-25.11-3.17-8.29-1.2-26.38-2.35-29.47-10.22,16.63-18.37,29.68-13.72,50.26,1.97,8.7,6.16,13.95,12.84,19.57Z"/>
    <path fill="#8c000a" d="M631.06,429.88c8.64-6.67,12.06-12.77,13.91-24.64,2.52-16.21-4.96-32.12-14.48-45.08-.25-.23-.51-.46-.76-.69,2.14,27.02-1.15,33.18-16.41,54.7-3.75,5.29-11.59,21.32-13.91,27.56,3.26-2.1,6.96-4.62,10.34-6.41,7.56-3.27,13-4.92,21.32-5.44Z"/>
    <path fill="#8c000a" d="M184.76,502.65l8.7,13.12c-2.94-10.73-5.33-21.29-8.31-32.13-4.14-15.07-11.19-32.06-13.52-47.36-1-6.53,1.03-17.97.93-24.97-.08-5.91-2.79-12.84-2.58-18.05.43-10.57,2.97-14.79.39-25.58-6.27-3.04-10.69-4.95-16.11-9.56-1.26-1.07-4.86-4.72-5.58-5.21,4.14,34.51-5.86,35.75-21.06,65,2.11,5.28,4.74,9.6,8.86,13.57,21.19,20.46,32.93,46.68,48.29,71.17Z"/>
    <path fill="#8c000a" d="M272.44,364.23c.14-1.33.94-10.47.43-11.13-6.72,7.85-11.18,10.2-20.81,14.15-2.48,11.53-.36,14.57.33,25.93.17,5.71-2.2,11.61-2.44,17.19-.35,8.37,1.62,17.52.73,25.82-.62,5.76-2.89,13.31-4.84,18.88-6.87,19.59-11.04,40.1-16.95,59.85,3.67-4.67,6.39-8.87,9.62-13.82,9.54-16.3,19.03-33.23,29.73-48.73,3.29-4.76,6.88-9.31,10.75-13.61,6.36-7.16,12.28-11.6,15.75-20.7-8.93-16.9-24.32-34.12-22.3-53.84Z"/>
  </g>
</svg>