<?xml version="1.0" encoding="UTF-8"?>
<svg id="female" xmlns="http://www.w3.org/2000/svg" version="1.1" viewBox="0 0 900 1140">
  <!-- Generator: Adobe Illustrator 29.8.2, SVG Export Plug-In . SVG Version: 2.1.1 Build 3)  -->
  <g id="quadriceps">
    <path fill="#8c000a" d="M167.85,746.53h-18.41c-.95,0-1.75-.7-1.87-1.64-1.11-8.56-2.1-17.2-4.5-25.51-2.63-9.09-8.74-15.11-13.66-22.85-8.17-13.92-10.95-36.56-13.83-52.18-7.36-40.04-11.78-77.45-1.21-117.48,4.03-15.25,9.62-30.21,14.01-45.43,1.05-3.67,1.59-7.38,2.03-10.99.26-2.17,3.38-2.22,3.72-.06,3.54,22.53,7.28,43.64,14.16,66.27,3.34,10.62,7.01,21.13,10.99,31.53,2.32,6.25,7.91,19.83,8.29,25.94,1.2,19.54,1.6,41.93-.97,61.34-2.33,17.6-6.72,35.04-5.99,52.88.49,11.77,2.12,25.22,8.79,35.26.83,1.25-.05,2.92-1.56,2.92Z"/>
    <path fill="#8c000a" d="M308.54,633.02c-3.23,17.57-5.3,34.61-10.51,51.96-4.64,15.46-16.34,21.32-19.85,37.26-1.64,7.46-2.93,15.05-3.95,22.66-.12.93-.92,1.63-1.86,1.63h-18.09c-1.49,0-2.4-1.67-1.57-2.91,16.33-24.34,4.78-68.81,2.05-94.63-1.89-17.9-1.4-38.49.04-56.4.43-5.29,6.73-20.81,8.91-26.66,4.09-10.73,7.82-21.58,11.2-32.55,6.55-22.03,9.44-41.86,13.05-63.2.36-2.1,3.39-2.08,3.72.03,0,.02,0,.05.01.07.95,5.79,1.89,11.23,3.59,16.9,4.17,13.87,9.52,27.94,12.97,41.99,8.58,34.87,6.71,68.79.28,103.85Z"/>
    <path fill="#8c000a" d="M167.84,734.13c1.53,4.28,6.04,15.49,11.99,11.83,16.24-19.02,7.45-83.04,1.92-106.73-1.77-7.55-7.06-30.67-10.86-36.83-.12,14.55.59,28.94-.53,43.48-2.26,29.41-12.91,59.17-2.53,88.26Z"/>
    <path fill="#8c000a" d="M250.88,603c-13.3,27.59-23.82,105.23-13.75,134.02,1.25,3.57,2.82,6.56,5.45,9.33,8.97,2.3,13.71-17.68,14.77-24.14,4.36-26.49-4.33-52.41-5.77-78.89-.37-7.9-.54-15.82-.5-23.73.02-3.54.5-13.69-.21-16.59Z"/>
  </g>
</svg>