<?xml version="1.0" encoding="UTF-8"?>
<svg id="female" xmlns="http://www.w3.org/2000/svg" version="1.1" viewBox="0 0 900 1140">
  <!-- Generator: Adobe Illustrator 29.8.2, SVG Export Plug-In . SVG Version: 2.1.1 Build 3)  -->
  <g id="Serratus">
    <path fill="#8c000a" d="M252.78,363.53c2.39-.88,4.78-1.66,7.03-2.84,8.76-5.63,14.54-11.42,17.64-21.66-3.68-1.4-7.5-2.8-11.1-4.36-4.49,2.21-8.39,3.83-13.27,5.07-4.19,10.62-3.47,12.85-.29,23.78Z"/>
    <path fill="#8c000a" d="M164.83,361.81l4.75,1.95c2.51-9.54,4.34-14.07-.21-23.61-4.68-1.61-9.29-3.41-13.82-5.41-3.55,1.53-7.12,3.03-10.7,4.49,4.31,11.05,9.32,17.22,19.98,22.58Z"/>
    <path fill="#8c000a" d="M157,311.95c-11.69,9.7-5.02,19.31,7.27,23.29l3.78,1.06.65-.39c.17-4.36,1.01-18.35.19-21.98-2.75-2.57-8.01-2-11.89-1.98Z"/>
    <path fill="#8c000a" d="M262.91,333.16c12.35-8.35,11.83-22.08-4.33-21.05-2.13.43-2.91.39-4.51,1.87-2.08,3.68-.54,16.75-.74,22.73,4.38-1.2,5.52-1.54,9.59-3.55Z"/>
    <path fill="#8c000a" d="M133.84,298.31c.73,5.93,2.74,20.36,11.54,20.75,2.23.1,3.53-2.27,4.53-4.02,1.04-1.34,2.22-2.91,3.3-4.19-6.79-2.14-9.72-3.41-15.07-8.48-1.04-.98-3.17-3.37-4.29-4.07Z"/>
    <path fill="#8c000a" d="M287.69,298.98c-6.02,6.23-9.79,9.46-18.45,11.95,1.79,2.19,2.9,3.48,4.38,5.92,1.57,2.2.58,1.54,2.89,2.35,7.49-.91,12.79-14.33,11.18-20.22Z"/>
    <path fill="#8c000a" d="M147.38,322.47c-4.2-1.05-5.48-1.73-9.4-3.64,1.48,5.98,3.11,11.46,5.72,17.07,3.01-.85,5.31-1.47,8.23-2.67l.87-.74c-1.93-3.99-3.66-5.36-5.42-10.02Z"/>
    <path fill="#8c000a" d="M283.94,318.58c-3.65,2.29-4.75,3.02-9.14,3.78-1.54,4.17-3.8,6.57-5.17,10.09,1.01.93.48.53,1.58,1.23,2.39.79,4.8,1.62,7.21,2.31,1.57-3.77,5.97-13.77,5.52-17.41Z"/>
  </g>
</svg>