<?xml version="1.0" encoding="UTF-8"?>
<svg id="female" xmlns="http://www.w3.org/2000/svg" version="1.1" viewBox="0 0 900 1140">
  <!-- Generator: Adobe Illustrator 29.8.2, SVG Export Plug-In . SVG Version: 2.1.1 Build 3)  -->
  <g id="Side_sh">
    <path fill="#8c000a" d="M159.83,191.55c-8.5-.32-22.48.58-35.96,8.81-23.45,14.31-35.53,44.77-31.16,77.51-7.37-23.75-7.4-54.03,8.05-74.7,8.39-11.21,21.94-13.79,34.91-15.24,3.95-.57,19.39,2.73,24.16,3.62Z"/>
    <path fill="#8c000a" d="M329.87,277.58c4.26-32.63-7.82-62.95-31.2-77.22-12.6-7.69-25.64-8.98-34.23-8.85,5.87-1.42,11.8-2.5,17.74-3.64,4.9-.99,18.48,1.99,23.23,3.64,30.41,10.52,34.21,60.19,24.46,86.07Z"/>
  </g>
</svg>